/* XPM */
static char *result[] = {
/* columns rows colors chars-per-pixel */
"64 64 197 2 ",
"   c #170B02",
".  c #1B0E02",
"X  c #220D03",
"o  c #2F0D06",
"O  c #330C07",
"+  c #330D09",
"@  c #241203",
"#  c #2B1404",
"$  c #2E1908",
"%  c #2F1708",
"&  c #321804",
"*  c #3C1C04",
"=  c #34130A",
"-  c #311D0A",
";  c #39180E",
":  c #33200A",
">  c #3A2309",
",  c #451F01",
"<  c #422506",
"1  c #4D2404",
"2  c #442A0A",
"3  c #492C0B",
"4  c #522604",
"5  c #562C08",
"6  c #532A04",
"7  c #4B2E10",
"8  c #452D16",
"9  c #4F3317",
"0  c #5D3915",
"q  c #54361B",
"w  c #5F3C1B",
"e  c #5C3713",
"r  c #5A330C",
"t  c #563820",
"y  c #583C24",
"u  c #5F2731",
"i  c #652C36",
"p  c #61343C",
"a  c #77333F",
"s  c #7D2836",
"d  c #6D3E47",
"f  c #743741",
"g  c #7D3E49",
"h  c #7A3844",
"j  c #694047",
"k  c #77434C",
"l  c #8C3443",
"z  c #843D49",
"x  c #8B3E4A",
"c  c #863844",
"v  c #933C4A",
"b  c #82424D",
"n  c #8E414E",
"m  c #93424E",
"M  c #98424F",
"N  c #844650",
"B  c #844C55",
"V  c #8B4A56",
"C  c #8C4E58",
"Z  c #8B4B56",
"A  c #934552",
"S  c #9C4653",
"D  c #924956",
"F  c #9C4955",
"G  c #944D59",
"H  c #9B4D5A",
"J  c #84515A",
"K  c #8A535D",
"L  c #94525D",
"P  c #9A515C",
"I  c #A34856",
"U  c #A44D5B",
"Y  c #A14756",
"T  c #A4515E",
"R  c #AA505C",
"E  c #895961",
"W  c #925560",
"Q  c #9A5662",
"!  c #9C5964",
"~  c #975B65",
"^  c #A45562",
"/  c #AC5563",
"(  c #A55A66",
")  c #AB5B67",
"_  c #A45E6A",
"`  c #AC5E6B",
"'  c #B35A66",
"]  c #B55E6A",
"[  c #B95F6B",
"{  c #B05561",
"}  c #8E6068",
"|  c #9C646D",
" . c #96626B",
".. c #9F6971",
"X. c #A4626D",
"o. c #AB626E",
"O. c #B5616D",
"+. c #BA626E",
"@. c #A76671",
"#. c #AC6672",
"$. c #AD6975",
"%. c #AA6E79",
"&. c #A66972",
"*. c #B46571",
"=. c #BC6672",
"-. c #B46A75",
";. c #BC6975",
":. c #B46E7A",
">. c #BD6D79",
",. c #A5727A",
"<. c #B4727C",
"1. c #BB727E",
"2. c #C06772",
"3. c #C26A75",
"4. c #C36E7A",
"5. c #C4727D",
"6. c #C9727E",
"7. c #AD7781",
"8. c #B67681",
"9. c #BC7681",
"0. c #BC7B84",
"q. c #BA7E89",
"w. c #B77B85",
"e. c #C57581",
"r. c #CA7581",
"t. c #C57A85",
"y. c #CB7A85",
"u. c #C57E89",
"i. c #CB7E8A",
"p. c #D07B86",
"a. c #D17D89",
"s. c #B7838C",
"d. c #BC828C",
"f. c #BC8B94",
"g. c #BF9199",
"h. c #C5828C",
"j. c #CD828D",
"k. c #D2838D",
"l. c #CD8590",
"z. c #CD8A95",
"x. c #C88B96",
"c. c #D28691",
"v. c #D88691",
"b. c #D58A95",
"n. c #D98B96",
"m. c #D68E99",
"M. c #D98E9A",
"N. c #CB919B",
"B. c #D4939C",
"V. c #DA929D",
"C. c #E2929D",
"Z. c #CE9DA6",
"A. c #D297A1",
"S. c #DD96A1",
"D. c #D29BA4",
"F. c #DE99A3",
"G. c #D79EA8",
"H. c #E297A1",
"J. c #E19CA6",
"K. c #E29FA8",
"L. c #E89FAA",
"P. c #DCA3AD",
"I. c #D2A6AD",
"U. c #E4A2AB",
"Y. c #EBA3AD",
"T. c #E6A7B1",
"R. c #E9A7B1",
"E. c #E6A9B3",
"W. c #EAABB5",
"Q. c #ECAFB9",
"!. c #F3A9B4",
"~. c #F3AFB9",
"^. c #F5ABB6",
"/. c #EEB2BB",
"(. c #E5B3BC",
"). c #F1B5BD",
"_. c #F1B8BF",
"`. c #FCB4BF",
"'. c #F4B7C0",
"]. c #FAB7C1",
"[. c #F3BAC3",
"{. c #FABBC5",
"}. c #F6BFC8",
"|. c #FDBFC8",
" X c #F7C0C9",
".X c #FBC4CC",
"XX c #FCC8CF",
"oX c #FECCD3",
"OX c #FFC7D0",
"+X c #FFD0D7",
"@X c #FFD4DC",
"#X c #F1D8DD",
"$X c #F7DCE3",
"%X c #FFDCE3",
"&X c #FFE1E7",
"*X c #FFE4EB",
"=X c None",
/* pixels */
"4.+.=Xb.S.T.D.R.L.F.S.S.H.V.=X=Xe.=.*.=X=X=X'.R.V.k.4.O.S / 3.& 4 1 & =X=Xy.k.k.b.l.=X$ =XW.W.W.!.{.. # # 5.>.4.5.e.a.c.V.`./ 6.",
"' R =X=X=X=XQ.W.U.F.H.V.m.b.c.t.o.G &X*X=X=XT _.F.y.=.c =X=X=X% * +.=.=X=Xy.b.B.M.n.b.n.H.J.F.J.U.[.=X@ =X=X=X=.O.*.*.6.V.).] *.",
"R =X=X3.=.>.}.Q.U.J.H.M.b.b.j.>.$X@XoX@X%X*X=X=X=X=X=X=X=X=X=X3 l.4.6.=.P e.k.b.b.b.b.b.V.S.H.F.Y.}.=X  @ =X=X=X=X=X*.4.k.^ O.' ",
"=X2.=.3.3./ OX}.R.K.S.M.c.i.e.Q %XoX XXX+X@X=X=X=X=X=X=X=X=X=X=Xy.p.k.6.) ;.1.5.t.i.l.b.M.S.H.U.W.}.=X=X. $ =X=X=X=X=X=Xt.6.+.{ ",
"=X+.3.r.r./ +XOX~.J.H.S.M.j.-.%X@X X'.[. XoX=X=X=X=X=X=X=X=X=X5 y.r.a.r.` H F &X` e.l.m.V.H.J.Y.).=X=X=X=X@ - <.-.oXOX=X1 % =X=X",
"=X=.4.y.y.] oX.XQ.K.F.V.M.j.#.%X@X.X[._.[.'._.=X|.T.U.E.=X=Xe , e.5.y.6.%X@XoX@X*X_ i.V.S.J.Y.W.{.=X=X=X=Xf.L oX X`.).'. X=X=X=X",
"=X=X2.6.r.3.U OX).J.M.m.b.t.( %XoX X'.[././.W.Q.W.T.U.J.U.=X1 & 5.2.6.p.@XoX XXX%X&X:.m.H.U.).{.XX=X=X=X=Xd.# ].).Y.K.W..X=X=X=X",
"=X=X+.=.3.4.+.S ).V.c.y.e.;.H %X+X X}.'./.E.Q./././.W.K.K.e , =X=X+.5.y..X[.'.[.oX%X` j.J.Q.XXoX=X=X=X=Xm.&.. W.U.H.H.Y.).XX=X=X",
"6.=X=X+.+.+.O.H S.j.4.;.O./ A &X%XXX{.'./.W.E.W././.W.U.U.r =X=X=X=X+.}.[.[.[.}.XX%XD t.U.}.=X=X=Xk.r.c._ A S.F.F.V.H.U.).XXR [ ",
"=.3.=X=X;.e.*X&Xl *.O.O.H =X=X*X&XoX}./.[./.W.Q././.R.J.H.4 =XU.R.W./././.[._.}.XX@X%X1.Q.=X=X=Xi.e.i.l.b.b.b.n.V.H.H.U.)..XU ] ",
"=.=.=X=X&X%X@X+X@X$Xc F ;.=X=X*X%XoX X[._./././.W.U.U.F.b.J.P.U.W./.W.W././.[.[.oX@X&X=X=X=X=X=Xe.y.j.b.m.n.n.b.V.V.J.Y.)..X/ 3.",
"3.2.=X=X@X+X.X XoX%X=X=X=X=X=X=X*X@X[././.W.W.E.U.J.F.y.y.J.U.W././.Q.E././.'.}.oX&X*X=X=X=X=X=X5.>.9.u.i.i.i.z.V.V.J.W.].}./ 4.",
"=.=X=X* oX X[._. X@X&X=X=X=X=X=X=X@X_.R.U.F.S.C.V.C.< y 6.U.U.Q././.E.W./.'.'.}.oX&X*X.X{.=X=X=X=X^ &XQ _ :.y.n.V.F.J.Q.}.(./ =.",
"R.w 1 _.[.[._.[. X@X&X=X=X=X=X=X=X@X/.S.m.b.c.n.M.n.v.7 3 6.U.T.W.Q.Q././.'.'.}.+X%X`.^.Y.^.OX=X=X*X@XOX@X%X:.b.V.H.K.R.E.f.R.K.",
"T.W.W.W././.'.[. XoX%X=X=.=.=X=X=X=XT.S.b.=X].Y.n.v.k.> 3 3 F.J.U.R.Q.Q.(./._.'.oX*XY.C.C.L.`.=X&X%XXX XXX@X( t.b.V.F.T.D.U.K.K.",
"/./.Q./.W./.'.{. X@X%X6.r.4.;.=X=X=X=X=X=X=X.XY.v.k.a.a.2 2 3 F.F.J.K.U.K.U.T.W.OX*XV.n.v.C.!.`.%X+X[._.[.XXx ) >.e.b.P.l K.K.W.",
"/./.W.T.W./.'.}.OX%X%Xa.k.y.3.=X=X=X=X=X=X=X|.L.p.4.4.2.- 3 2 : S.S.m.n.m.m.S.U.[.C.v.v.n.C.!.|.%XOX}.'.'.}.}.h n H -.x.v J.U./.",
"Q./.Q.W./.'.[.}.oX&X*Xy.a.r.=.=X=X=X=X=X%X%X=Xn.3.' { R U.J.> - =X=X3.c.l.b.n.H./.p.k.v.v.C.L.&X@XXX X'.'./.Q.Q.W.E.U.=X=X=XJ.T.",
"T.W.Q././._.[.}.oX%X*X3.r.6.+.=X=X=X@XOXoXOXOXp.O.R W.E.E.U.U.8 =X=X=.3.r.y.a.p.y.r.p.v.n.C.!.%X@XXX[.'././.Q.W.Q.R.U.U.J.=XF.J.",
"F.U.W.W.Q.(./.'.@X*Xd.] 4.2.[ =X=X=X%X X[.[.[.'.Q.W./././.W.U.& =X=X3.3.p.a.a.r.r.r.p.v.n.L.~.&X&XoX X[./.Q.E./././.Q.U.F.0 1 F.",
"S.S.S.S.F.U.W._.@XX.V.^ +.] =X=X=X=X@XXX[.'.[./.W.Q.Q././.W.U.7 * =X=X=.6.p.p.y.p.a.v.v.n.L.{.*X*XoX X'.'./.W.E./././.U.U.=Xy < ",
"=X=Xb.c.b.m.S./.@X1.F.v Y =X=X=X=X=X%XXX X[.[./.Q.E.W.W.Q.T.J.> q 1 w +.=.4.&Xp.a.a.k.n.C.L.]..X&XoX X'.[./././.Q.W.E.U.~.3 9 =X",
"=X=X=X=X%.b.V.T.o.h.V.V.s =Xc.y.i.=X=X+X.X X[./././.Q.Q.W.U.F.: < =X5 %X@XoX@X*X6.p.a.a.n.!..X=X*XoX'./././.W.W.R.U.J.F.2 3 > =X",
"6.=.;.=XA.0.%.1.h.b.b.b.b.b.j.i.e.1.=X@XXX.X[.[._.)./.Q.T.H. .j.< q * @XXX[.XX%X&X+.3.6.v.^.=X=X&XoXW.E.U.P.U.J.J.F.F.3 3 < =X=X",
"6.3.] Y N.h.0.j.b.b.c.m.n.M.M.c.y.1.=X&X%XoXXX}._././.U.J.! d.+.b.q =XXX[.'. X+X%XR / [ p.!.=X=X=X{.U.S.M.b.M.M.V.V.: 3 2 : 6.y.",
"i.6.[ S @X%X@.9.l.m.c.c.b.M.V.n.y.6.=X=X*X%XOX X/./.U.S.c.| w.T k.2 [.[.'.[.[.oX%X=XR ' 6.=X=X=X=XQ.F.b.b.c.c.Y.M.k.- > J.U.6.y.",
"k.y.+.OXoXXXOX$X9.m.M.b.b.M.M.k.e.=X=X=X^ A %XXX/.T.S.b.z Z U.T.W./.Q./._._.[.OX@X%X=X=X=X=X=X=X=X=X=X=X=X=X{.!.n.;.8 G.U.W.R.R.",
"W./.'.[.[.[..X@X:.c.M.M.n.b.i.e.;.=X) ) ` ( b %X[.U.m.g J.P.U.W./.W.W././.[.}.oX%X%X|.=X=X=X=X=X=X=X=X=X=X=X.X).i.x.J U././././.",
"Q.W./.[.[.[..X@Xo.j.b.b.j.y.6.*.=X=X&X*XG L k 2 - C ( ! F.U.W./././.R.Q./.[. XoX&X*XJ.!.OX=X=X=X=X=X=X=X=X=X[.Y.1.,.7 U.W././.W.",
"W.W./.[.[. XoX@X*.5.5.5.5.4.*.o #X@XoX@X%X*Xq < W 1.u.:.U.T./.)./.W.Q./.'.[. XoX*X*X4.n.).=X=X=X=X=X=X&X=X=X=XA.( q > F.T./.W.E.",
"Q././.'.[..X+XP O.*.O.O.*.=X=X=X%XoX XXXoX@X9 B %.u.h.1.L U.T.W.W.Q././._.[.[.+X%X$.P.6.L.].=X=X=X=X*X@XOX@X&X=XK < $ F.U.W./.Q.",
"_.'.'.}..XoX@X( O.O.=X=X=X=X=X%X@X X'.[. XoX2 Z X.$.o.X.! F.J.U.E.W.Q./././.[.oX&X:.K.*.H.].=X=X=X%X%XoX XXX+Xk q < B V F.T.Q./.",
"/.'.[. XoX%X%X=X=X=X=X=X=X=X=X&X@X X[.[.'.'._.a z E.U.E.V W F.F.F.U.U.K.U.T.Q.oX&X1.F.P j.Y.=X=X=X%XoX}.[.[..Xi 9 B | @.P F.T./.",
"/._. XoX&X*X=X=X=X=X=X=X=X=X=X%XoX X[.[.'.Q.W.Q.W.T.U.J.U.Q =XS.V.m.m.b.m.S.K.[.( h.V.F.( 0.=X=X=X%XOX}._.[.[. X2 k P X.! c.V.U.",
"E./.OX%X=X=X=X=X=X|.}.=X=X=X=X%X@X X}././.W.Q.Q././.R.U.J.L =X< > - z.c.b.n.F.Q.1.z.M.b.n.b.t.` &X@XOX[.'.[././.Q.W.T.U.N N z.V.",
"J.}.@X=X=X=X=XN.m.J.T.W.=X=X=X&X@XXX[.[./.W.W.W././.Q.U.K.=X=X: $ 7 =./ q.q.8.0.j.m.b.b.b.b.t./ &X@XoX}.'././.Q.W.Q.W.U.K.J.K V.",
"=X- < =X=X=X*X&XX.1.b.S.V.j.` *X&XoX X'.[.(.Q.W././.T.J.=X=X> - : > q U I.E.D.b.b.b.z.c.n.m.l.` *X&XoX X'./.W.E./././.W.U.J.7.=X",
"=X=X< q *X%X@XoX@X$X1.b.M.h.:.&X%XoX}.}.'././.Q.W.U.K.F.y > =X=X=X: 2 Y I.(.B.8.9.h.c.c.c.m.c.-.*X&XoX X}.'./.W.E./././.Y.J.=X=X",
"=X=X=X9 @X+XXX XOX%X( u.b.c.5.^ *X@X[././.W.W.T.U.J.F.3 9 =X=X%X%X=X< q l d.@.K.K.o.u.b.n.b.c.>.D %XoX[.'._././.Q.Q./.E.U.X.=X=X",
"=X=X=X3 oX X'.[. X@X&X1.l.n.l.1.G @X'.E.U.F.S.S.V.S.2 3 > @XOXOXOXOX=X9 =XE.W.T.Y.J.:.h.b.c.i.;.H &X@X'././././.W.R.U.F.F.=X=X=X",
"E.=X=X_.'.'.[.[..X+X%X:.m.S.V.h.O.@X/.F.m.b.c.b.~ J j < j @X.X[.}.'.[./.Q./././.Q.K.^ 1.t.r.6.;.o &XXXQ.T.U.K.U.U.F.F.S.=X=XT.U.",
"R.W.Q.W././.[.'..XoX%X:.b.V.M.c.>.G R.V.b.=X= =X%.E 2 : J %X.X[.[.[./.W.Q.Q.Q./.W.K.A ] ;.4.>.  o + [.L.S.m.b.m.B.V.S.=X=XU.J.U.",
"/././.Q.W./.[.[.}.+X%X8.B.V.M.i.*.T =X=X=X=Xo <...9 >  .&.%XXX}.[.[./.W.E.E.Q.Q.E.F.n / =X=X=X  . _ Q.F.b.b.b.k.- > 2 =X=XU.U.E.",
"/./.Q.E.(././.}.XX%X&Xh.F.m.j.4.O.=X=Xn &X*XG L q < ..0.h.&.oX.X[.}././.Q.Q.Q.Q.U.F.=X=X=X=X=X@ e.5.-._ ! #.X.H 2 - : E ..K.U.Q.",
"Q./.W.Q./._.'.}.oX&X*X=XW.H.y.=.=X/ #X@XoX@X%X&XN | d.B.B.w.@XOX.X[.[.'._././.U.J.=X=X=X=X=X=X=Xe.u.u.u.u.<.W q > : $ > } =XK.T.",
"U.W.Q././._.'. XoX%X*XC @   =X=X=XG %XoX XXX@X@X3 X.h.b.V.x.&X%X+X.X[.'././.T.F.=X=X=X=X=X=X=X% -.-.>.9.t.<.K 2 : p k K < y F.K.",
"J.U.E.W.W././.}.@X&Xd.= @ ,.A.=X=X&X@X X[.[.[.OX> ! <.8.8.q.%.*X$XOX X_./.U.A.b.N.=X=X=X=X=X- X P J.U.G ! L q > i @X%Xk k 9 2 F.",
"S.S.S.S.F.U.E._.@X@.S.$ C u.K.=X=X&X@X X[._.'.}._.b V T.U.T.=X=X=X%XXX/.U.S.b.s.G.U.].XX=X=XX X U.T.E.E.E.f 9 u oXoXXXXX@X> 3 2 ",
"3.=.b.c.b.B.H./.@X1.F.# L 1.j.=X=X%XoX X{.'._.(.W.W.W.T.U.J.U.=X=X=X@X[.U.V.d.G.U.J.R._.=X- X =XJ.W./././.Q.Q.[.{.'.[..X@X6.< y.",
"=.=X=X=X..b.V.T.X.i.V.V.z H k.1.( &X@X X[.[./.W.Q./././.R.U.P.=X=X=X=X=X=X=XU.T.F.C.J.U.h $ =X=XU.W././.Q.Q.W.(.[.'.[..X$X6.: 2 ",
"q =X[ S 8.! ! $.u.b.b.b.n.b.j.1.P &X@XOX}.'./.W.R.W././.Q.U.K.=X=X=X=X=X=X=X_.R.U.V.H.J.K.@ | =XJ.U./.W.E.E././.[.'. XXX@X6.5.> ",
"< t ' Y *X&XQ $.j.c.c.b.n.M.M.t.( *X&XoX}./.[./.Q.Q.Q./.T.K.=X=X=X=X=X=X=XXX{.R.J.H.F.V.b.n.j.o.F.U.W.Q.Q./././.'.}..X+X;.+.e.e.",
"@ =X*X%X@XoX@X$X:.l.c.c.b.M.V.j.] *X%XoX X[._././.Q.W.U.K.F.=X=X=X=X=X=X=XXX XR.J.H.V.m.b.c.c.9.P F.T././._.'.[.{.XXoX@XI U 4.1 ",
"5 7 @XoXXX XoX%X) u.b.b.b.n.n.i.*.=X*X@X[././.W.W.T.U.F.F.=X=X=X=X=X=X;.I XXXX~.U.C.V.b.c.b.n.c.:.V J.U.Q./.[.[. XoX%X&Xx.=X=X=X",
"* > oX X'.[. X@X%X1.l.M.n.b.j.r.>.; O @X'.R.U.F.S.S.S.S.=X=X=X=X=X=X3.+.T +XXXQ.U.J.V.V.b.b.V.b.j.( b.B.U././. XoX%X*X_ %.q.Z.=X",
"=X/.}.'.'.[..X+X%X#.i.c.c.y.e.5.@ % =X+X/.F.M.c.b.b.#.=X-.5.=X=X=X=X=.+.+.I .X!.U.C.V.V.M.b.b.b.i.;.=Xb.S.T./.OX%X@.-.Q T.U.T.=X",
"W.W./._.[.[. X+X%X^ ;.4.5.4.4.@ # . U.<.T.V.b.i = a 1.u.j.j.t.=X=X=X2.3.4./ OX).V.V.n.b.n.b.k.i.e.1.=X=XM.U.'.%XO 0.$.U.K.U.T.W.",
"/.Q.W./.'.[. X+X&XA ` O.*.x =X=X@ =X/.z.8.:.<.h.u.j.c.b.M.b.y.I =X=X=X=.;.] OXR.b.j.j.y.i.y.e.6.6.=X=X1.` ( =X=Xi.h.-.K.U.W././.",
"W.E.Q./._.[.XX@X&XA =X=X=X=X=X@   =X{.K.m.b.b.b.k.b.b.V.M.b.e.H ] =.=X+.+.] S J.i.5.=.+.=.;.>.4.=X=Xy.5.9.e.u.h.j.j.:.K.U.Q././.",
"W.Q./.'.'. X+X&X*X=X=X=X=X=X$ . =X=X{.Y.U.S.S.B.b.c.k.b.b.k.e.^ +.+.=X=Xe.5.T n.5.=.O.O.O.  . @ =X=Xy.t.c.m.m.n.n.l.9.! J.T.Q./.",
"/././.'.[. XoX%X*XA. X=X=X- @ =X=X=X=X).Y.J.F.V.V.M.n.n.b.y.5.] =.2.=Xw 1 5.U F M m m z p @     =X=Xt.i.b.V.M.b.c.c.l.-.S.K.U.Q.",
"T.E.Q.(./.[.@X*X8.V.). XoX=X=X=X=X=X=X}.W.Y.J.S.V.V.V.m.j.5.H +.+.=X6 5 =X=X=XI S F S z & X     . =X=Xr.k.n.n.b.b.m.B.i.@.F.F.U.",
"S.S.J.K.R.'.@X$.z.S.Y.).].% =X=X=X=X=XXX}.).U.H.S.V.b.k.e.m R ] +.4 6 * =X=X=X=X=X=Xm f @   =X=X=X@ - r.t.k.b.n.M.V.V.B.h.<.S.V.",
"b.c.b.M.S./.+X8.m.V.V.U.W.. =X=X=X=X=X=XoX.X~.U.V.M.i.;.O.m / 5.4 4 1 =X=X=Xy.t.=X=X=X- @ =X}..X=X=X# # 5.r.y.l.c.b.m.m.S.D.A.l "
};
