/* XPM */
static char *_0162_698f3ae58c336e0b25d53bce22e6f0d5eb0d5fd88c12abd47c1bf16bdb4e5ee1[] = {
/* columns rows colors chars-per-pixel */
"64 64 51 1 ",
"  c #D7A2AC",
". c #D9A6B0",
"X c #DAA8B1",
"o c #DAA9B2",
"O c #DBABB4",
"+ c #DCACB5",
"@ c #DCAEB6",
"# c #DCAFB7",
"$ c #DDB1B9",
"% c #DEB1BA",
"& c #DEB2BB",
"* c #DFB4BC",
"= c #DFB5BC",
"- c #E0B6BE",
"; c #E0B7BF",
": c #E1B8C0",
"> c #E1BAC1",
", c #E1BBC1",
"< c #E2BCC3",
"1 c #E2BDC4",
"2 c #E3BEC5",
"3 c #E4C0C7",
"4 c #E4C1C7",
"5 c #E5C2C9",
"6 c #E5C3C9",
"7 c #E6C4CA",
"8 c #E7C6CC",
"9 c #E7C7CC",
"0 c #E7C8CE",
"q c #E7C9CF",
"w c #E8CAD0",
"e c #E9CCD1",
"r c #EACED3",
"t c #EACFD4",
"y c #EBD0D5",
"u c #ECD1D7",
"i c #ECD2D7",
"p c #ECD4D8",
"a c #ECD5D9",
"s c #EDD6DA",
"d c #EED7DC",
"f c #EED8DC",
"g c #EFDADE",
"h c #EFDBDE",
"j c #F0DCDF",
"k c #F1DDE1",
"l c #F1DEE1",
"z c #F2E0E3",
"x c #F2E1E4",
"c c #F2E1E5",
"v c #F3E4E7",
/* pixels */
"44578677332587857632>>>;;>,-$+%080www9790qqweeweeeeeeeeeq9900744",
"5679q898643798w898741>,;;,<;$#%88weee09qwypiiyetyytyyttrewqww844",
"yyyyiyttryiyyyiyttttw00qete1$<&1,qdhdpeeepdsiyytw8wtyiipiipaassa",
"ppiipiyyypappppuyyyyeewetyy551&>0dhkhsyttfhhhsdiw79etyypppsddggg",
"ppiiiutyiasppapyyyteeewetew041&>0gjklkhlkkjhiwew954137tiiisffhhh",
"ppiipdi0eiiytyyteeteeeeetete6:%<qgjklkllkkhaytyrreq79eagffhhhhhh",
"ppiteew3qppitreq0wtteeq868005>%5dcvvccxkgdddssdddffhhkkkhdpippyy",
"ffhhgdpytytyyyyuiiipiteeeeew4;&6fvvclxxxxccclkhgfhjhkkhspyiipppp",
"ddhhfdpiytttyyupaapsptttttew4:&qgcccllllxxcclkhhghjhjhhpiyipapaa",
"iiytetteeeeetyiasppspyyyteew5:&0dxxxlkdfgfggghhhhhhfspppadfddapp",
"tteeeeeeeqweeeyytttete000887<;&3ihhhkjdsdsspyypssisaiyttyiaiyyyy",
"yyrttyyyippppppiiuttuuteeq092;&1rfdhhfapspuyyyippppppyttypappppp",
"ttrttyyypaasaappiuyyipyteeq81*&1qadghfsaspiyyyipappppyyyipapiiii",
"eeeeeeyyipppippuyytyyiipiye2#-*,;qdhhgddddgdfdfdsspsddddsapyttrr",
"rrettypppaappppiiutttteteeeq;;&,5paaspapasppppppppppiyyyyyyttttt",
"q00qqwrrttytttteeeeqqq0087751;&;7eqqweeeeeweeeertewewwwwwwwq000q",
"6544558900qqq098887555251<,<,&&:55435775521222,;2655555555542445",
"&&&&&&&&%%%%%&%%%%%%%%%%%%%%%%&&&&&%&&&&&&%%&%&%%&*&&&&&&&&*&&&&",
"076531,,:;,1123455545754575554323459qqww867666554458qwwq065&;157",
"76545350wwq073136888009888770qetteeeetteeeqqqqetttttttee5-7&*o*:",
"7775436qeeeeq988weeetyyyutteewtpppppiiiiiyytytyttyyyiiypi7w&>*33",
"eeq9777qeettterttteeeupppadpuyyagspyyeeetteweweeeryippappye&37ew",
"rrew998qeetttrtytteeeuppasdpiiyphspiyeeettewwqeweeyiipappue&40ee",
"ttyyyyyyteeeweweeettyyiuipaiiiuuappssiiuiyteeweeeeeeetyyye0&10tt",
"eeeetyiiiuuueeeeeeeeetttpaateeereeeetipppaspippppiiiyiipie9&29ee",
"qqwwweeeeeee0988qwewq000qettyuuiyteewtyuyipippipppappssdsyw*,7qq",
"wwq77679qqqq0eeerttreq0qwwetpppppspyyyyytttyiippiippppsdsue&20ww",
"wwq77679qqqq0eeeeteeeq0qqwwtiiippspiiyyyyytyiippipppppssaye&29ww",
"qqq0eeeeeereww0854788qq99q70weeeettyiipsassppspasdddsddpie9*<499",
"666788633790weww8545458808:--,23478qerreyteweweyiteeteww2$>*=O=:",
"000qqwq967778qqq631:-*&->;;:--:<133221,,,:,244442,-*---:>+$&,-77",
"21,<14556531,>,<>;=+oXO++##$&-;::>>=&$+++++$&$&*&&*-<11<,;*&-;<1",
">;*=;,,,1<>:=&*-*&****---*&$$&**&&&$++Ooooo++++@++$*:>>:;=&&&*>>",
"$$$$$$$$%$%&&&%%%%%%%%%%%%&&&&%%%&%&&&&%%&&&&&&&&&&&&*&*&&&&*&&*",
"eq52<1255555557765124555576698621&;>,121221>,,,<,,,2455552485570",
"uyre9780qq0qeeweww000qqqqwqwq0<#,&&o*342588776544467880qq0qrreti",
"yiiyw0eeyyyiiyttrtteteeeeeeewq8>1%-*35746776378879wetyiippppshhg",
"ttyrw0weyytyyyrreteeeewwwqqq99951%;156746776379870qwryyuipiupgss",
"ww99q098976679qweew9q7454221232,=%,588990qwq0qqq0987889099990www",
"wq8789900q9880q00087735677777871:&:49000q9qwq9990qqq988qwerreeww",
"99998764588877788877556777778875,&-,3454578900qeeeeeeerrweeewqqq",
"338qq8557q98880qwwewq99088888875<*1790wqq90qwwerew90000977576465",
"117qq8446q988890wqwqq990898899861&1680qq098990wew077878765455454",
":;,378411570975111<1347770wweee05*=>11123211<,111>:><12665578900",
"11,33>,1355876511:=$*-:>,2580qq92&$&:::>,>::>13333431125653432<,",
"<1<,21,122231,11221<2477765331*.*&*X-34564443456777878qeteewq977",
"11667783<124632345667787554221,+&&;*355543464557908wqwweew084123",
">>11125<;;,<21<<1121444311<,,,>*&&->2211<<<1<<<2775778800752,->,",
"&&&$#%;>;*&&=:::;;;-:>::;-=*-;>;=&#*>,>>>;--*&*-<91$&;2752,:-&$%",
"%$%%%%%%%%%%&%%$$$$$$$$$$$$$$$$$$&%&&&&%$$$$$$$$%%%%%%%&&&&&&&&&",
"-*&=;>,,>:=**=:,1121111<122221224374;-14335<>>>-*$%*&$$$%%&**&*-",
"--&&&&=-;@ +*&.*2465677555654470qwe0550qrre98851<451<264,-;::--;",
"11:----:,>*#&-:267899qq0900099qetyie0qeeppieee0549q658wq41222<,,",
"www97:&-<1:@&;>234780qettreeeettyiueew77eispir0568w00qee85597333",
"87,1qw4454>+&=<78qerteeeeeeeeerte027tyyyyt89eyye8890ww0750qw8588",
"q0945771<74>&><69eeysdgdppiuyuiipsaie58780rpittuuytw9qew6750ew99",
"qwe2124-;54+*57889qeytyrq0750tpasdggghp845ippiypsssy937eq569erew",
"0qe7qwq7:45+&809990etere98649riasdfghksq67iitiyyuppt037eq459weew",
"326e742wq50$&0wreqeeeeeewqweertpsppiuhkgsipreerere07weq872488278",
"2<=e4386901;*0parisspppiytewq9wiiye99dcczkhgpyuiippiytue6:2rr412",
",,79164207-**45ww7wq00089qerypsspspyyhxcxlhgdsggfddfaiuyewttq499",
"2255433747>&*,5w8;>28qe99eyiisssppppydccczkgdddjjdsyuyiitrq90712",
"32555327481&*=7q8--17qe99eipisspppspydcccxkgddshkfpttyiiyr08071<",
"32554325>:;*&$192->28qe90eyiipsppppptsxcclkfssshkdptttuuyr080711"
};
