/* XPM */
static char *_d08ca30b05f43af9872461ba74ed645bd6Ao4OaLhm039rY[] = {
/* columns rows colors chars-per-pixel */
"64 64 180 2 ",
"   c #24170A",
".  c #37220F",
"X  c #392918",
"o  c #3D2F24",
"O  c #45362A",
"+  c #4A3A34",
"@  c #55433C",
"#  c #5C4739",
"$  c #65533C",
"%  c #534641",
"&  c #574942",
"*  c #594A43",
"=  c #634E46",
"-  c #6A584D",
";  c #6B5A51",
":  c #7B655E",
">  c #7F7256",
",  c #7B6760",
"<  c #7D6963",
"1  c #8C4F50",
"2  c #9A5F62",
"3  c #9B6063",
"4  c #837568",
"5  c #A76666",
"6  c #A06D6D",
"7  c #B16E71",
"8  c #A27372",
"9  c #A77978",
"0  c #AD7B7B",
"q  c #B17173",
"w  c #B4747C",
"e  c #B57E7E",
"r  c #9D8676",
"t  c #96847E",
"y  c #9C8C7D",
"u  c #A38F7E",
"i  c #B07E80",
"p  c #A68E86",
"a  c #B48182",
"s  c #B68486",
"d  c #BB858B",
"f  c #B58A8B",
"g  c #BA8B8B",
"h  c #AA9687",
"j  c #A69A85",
"k  c #AE938D",
"l  c #B2938E",
"z  c #B6958D",
"x  c #BF8590",
"c  c #BC8F92",
"v  c #AF9791",
"b  c #B59692",
"n  c #BC9495",
"m  c #B59B94",
"M  c #B89C94",
"N  c #BE9698",
"B  c #BB9B99",
"V  c #AFA090",
"C  c #B5A497",
"Z  c #BCA39B",
"A  c #B6AA98",
"S  c #BDA99F",
"D  c #BFA7A0",
"F  c #BEACA1",
"G  c #C6848D",
"H  c #C28C8E",
"J  c #C38C94",
"K  c #C48F98",
"L  c #C49295",
"P  c #C5959C",
"I  c #CC949D",
"U  c #C49B9D",
"Y  c #CE9A9F",
"T  c #D8949F",
"R  c #CC97A0",
"E  c #C79DA1",
"W  c #CA9CA3",
"Q  c #CF9FA8",
"!  c #D29CA5",
"~  c #DF9BA7",
"^  c #D29FA8",
"/  c #DB9EA8",
"(  c #E19BA7",
")  c #C3A4A3",
"_  c #CAA4A5",
"`  c #C3ABA5",
"'  c #CBA9A6",
"]  c #CCA3AA",
"[  c #C6ADA9",
"{  c #CDABAB",
"}  c #D0A4A6",
"|  c #D3A4AC",
" . c #DBA4AD",
".. c #D1ADAE",
"X. c #DCA9AF",
"o. c #C6B0AA",
"O. c #CAB2AD",
"+. c #D0B0AF",
"@. c #CDACB1",
"#. c #D6A6B0",
"$. c #D8A7B0",
"%. c #D4ACB3",
"&. c #DBACB4",
"*. c #DDAFB8",
"=. c #CCB5B2",
"-. c #CDBBB4",
";. c #D1B3B2",
":. c #DDB1B6",
">. c #D3B9B6",
",. c #D8B8B7",
"<. c #D6B4BA",
"1. c #DDB4BB",
"2. c #D5BBBA",
"3. c #DCB9BE",
"4. c #E2A1AD",
"5. c #E3A7B1",
"6. c #E4ABB5",
"7. c #E5AEB9",
"8. c #E0B0B7",
"9. c #E5B4BC",
"0. c #E9B4BE",
"q. c #E1B8BF",
"w. c #CEC0B7",
"e. c #CFC0B9",
"r. c #D3C1BB",
"t. c #D8C1BF",
"y. c #DEBCC2",
"u. c #E9B7C0",
"i. c #E2BCC3",
"p. c #EABCC4",
"a. c #EBBFC8",
"s. c #D7C5C1",
"d. c #DDC4C4",
"f. c #D7C9C3",
"g. c #DACAC6",
"h. c #DECBC9",
"j. c #E3C1C6",
"k. c #EAC0C7",
"l. c #E5C4CA",
"z. c #E6C5CC",
"x. c #E7C6CC",
"c. c #E7C6CD",
"v. c #ECC4CB",
"b. c #E7C8CD",
"n. c #E4CACD",
"m. c #E8C8CE",
"M. c #E9C9CF",
"N. c #E8CACF",
"B. c #E2D0CF",
"V. c #E5CED1",
"C. c #E9C9D0",
"Z. c #E9CBD0",
"A. c #E9CCD1",
"S. c #EACDD2",
"D. c #EACFD4",
"F. c #F0CDD4",
"G. c #E6D1D2",
"H. c #EBD0D5",
"J. c #EBD1D6",
"K. c #EBD2D6",
"L. c #ECD1D6",
"P. c #ECD2D7",
"I. c #ECD2D8",
"U. c #ECD3D8",
"Y. c #EDD4D9",
"T. c #EDD5DA",
"R. c #EDD6DB",
"E. c #EED7DB",
"W. c #EFD8DB",
"Q. c #EFDADD",
"!. c #EFDADE",
"~. c #F0D1D7",
"^. c #F1D3D8",
"/. c #F0DBDF",
"(. c #F0DCDF",
"). c #F1DEE1",
"_. c #F1DEE2",
"`. c #F2E2E5",
"'. c #F4E6E8",
"]. c #F6E9EC",
/* pixels */
"1.:.A.l.A.c.A.N.I.I.L.A.l.l.i.*.i.v.c.A.z.M.i.I.I.).I.).E.I.l.D.D.E.D.D.D.^.I.).l.i.Q.I.L.Y.A.I.I.L.L.Y.Q.J.Y.`.`.`.`.Y.Y.Y.L.{ ",
"q.*.A.i.N.c.D.D.Y.Y.D.A.N.l.i.i.i.z.z.D.c.z.i.D.I.I.Y.Y.^.I.c.A.I.Y.A.D.D.D.D.Q.l.i.Y.I.I.D.A.I.Y.Y.L.I._.Y.I.`.`.`.`.Q./.D.;._ ",
"y.1.I.A.m.A.I.D.E.I.J.N.A.l.i.q.l.m.A.A.c.A.i.D.I.D.I.).I.D.l.A.I.I.D.D.D.I.D.).l.l./.L.I.D.S.I.L.Y.L.L.Y.Y.J.`.`.(._./.Y.+._ _ ",
"1.:.L.l.A.c.i.i.c.i.l.i.1.q.&.&.i.1.q.i.i.l.1.z.l.l.c.m.m.i.$.l.A.m.i.c.i.i.m.A.1.&.m.i.l.l.i.l.b.c.N.A.V.b.l.Q.`.A.Y.L.i.{ { { ",
"1.%.V.3.c.l.i.i.z.i.i.i.i.*.*.i.i.1.i.i.i.c.1.j.i.m.c.l.i.i.*.l.N.l.i.l.i.m.m.A.i.| l.l.i.N.i.j.N.A.j.D.J.c.c.Y./.N.Q.J.j.O...{ ",
"p < - @.d.i.i.i.i.i.a.i.i.q.1.i.i.i.1.*.j.i.:.i.l.c.i.l.i.i.1.N.N.N.l.m.i.i.m.L.i.| l.m.x.N.i.c.N.b.b.L.J.c.j.J.L.l.Q.Y.i.{ _ ' ",
": O % E <.y.i.i.l.i.u.y.7.y.*.1.y.i.q.*.1.i.&.j.l.l.l.v.i.l.1.i.A.m.l.m.j.i.N.I.q.! l.l.N.N.i.N.N.I.A.A.A.A.l.J.N.l.L.Y.l...' ] ",
": + * b =.i.i.l.z.i.y.i.y.i.*.1.1.i.i.y.1.i.$.j.c.l.m.l.c.c.1.l.A.c.i.m.j.j.A.L.1.| m.m.l.m.i.l.A.D.N.J.L.A.i.A.A.i.b.L.A...' { ",
", # % b { j.1.i.l.i.i.i.i.9.&.1.1.i.i.i.1.i.$.i.N.l.N.c.j.N.i.l.A.c.l.c.i.c.N.I.1.&.A.A.b.A.j.l.N.L.N.A.A.N.b.A.L.N.H.L.A.;.U _ ",
": @ * k { y.i.i.z.y.*.i.i.i.*.1.1.i.l.i.i.A.:.i.m.i.V.A.l.j.i.l.m.l.m.A.l.l.c.J.i.$.D.A.N.b.l.b.N.I.D.A.D.N.b.A.L.Y.Q.Q.A.;._ { ",
"= o @ v { 2.i.i.i.] E U _ _ E _ Y _ ' { ] { U _ { ' ..;.{ { ' | { | ..;.' { { >.U U >.{ { %.....;.>...=.>.{ >.J.D.J.Q.P.S.;._ _ ",
"+ + % b ] y.j.3.i.W E U _ _ E _ _ ] _ { { { U _ ..' ..;.' { _ { _ { ..O.' { ..>.P U >.{ ......O...>.>.>.>.2.Y.J.Y.L.L.J.S.;.' _ ",
"! d D U | 3.l.i.u.E E U E _ U _ _ ' ' ' { { L _ | { ;.;.{ { _ { { ] ;...' { { ;.L U >.{ =...{ { { >.;.2.r.P.!.J.Y.A.L.L.N.;.{ _ ",
"} P 2.@.d.l.j.:.1._ E E u z Z Z S ) B Z S S ` S F S F F S [ O.>.>.) F F F F F F F F F F S ` S Z C C C u _.Y.(.Y.Y.H.P.P.L.;._ W ",
"*.%.b.y.j.j.l.1.i._ E Y r M C ) ` [ ` O.=.-.-.=.-.=.-.-.O.O.O.O.-.O.o.=.-.-.=.=.-.-.-.-.O.-.=.[ ` F Z h !.!.!.P.Y.J./.L.Y.;._ _ ",
"y.i.I.i.A.l.b.q.q.{ _ _ 1 8 9 i d c i s n N B c N n U B n g n n M d f n U B N U U B P N n N n f f k h 0 `.!.!.L.P.J.Y.L.N.O.' L ",
"&.i.D.l.c.l.l.l.i...E ) 5 g H Y ! } !  .&.:.X.:.:.&.1.,.&.*.| ! X.! | X.,.3.:.1.8.,.3.:. .&.:.%.' ' ) s !.!._.I.I.D.D.D.A.] _ ) ",
"#.| N.i.A.c.l.i.j...Y ' z o.=.s.j.! &.b.L.G.n.G.G.G.Y.G.G.G.V.! 8.d.n.B.L.Y.L.G.G.P.Y.Y.n.| q.n.g.s.w.C !.Q._.I.I.D.A.D.J.{ U U ",
"&.#.A.c.D.l.l.i.b.=.] { z O.>.d.b.P &.A.P.Q.Q.P.J.J.Q.E.J.Y.G.E q.N.H.Y.(.Q./.Y.(.Q.(.(.Q.E i.D.l.s.-.C !.Q.!.I.Q.I.D.D.I.{ P Y ",
"*.*.A.i.I.m.l.l.b.+...' m [ >.h.G.P 4.A.(.(./.P.I.E._.I.Y./.Y.U 6.N.H.Q.(._././._.Q.(.`.(.] 0.J.h.f.r.Z _.Y._.I.E.D.b.D.L.' U ) ",
"1.i.D.i.I.N.l.l.D.O.%.' 2 a d P R ! 4.4...%.| } I | %.^ | #.| ^ 6.T I  .%.&.%.<.,.| %.:... .7.*._ U M u ).)._.T.J.N.D.A.A.{ P n ",
"i.i.Y.i.L.N.A.i.b.{ { ' 7 L Y X.6.6.6.7.p.0.0.6.5.u.a.u.9.p.p.u.9.( 4.p.k.p.p.k.N.k.v.A.u.0.u.i.:.;.{ g ).).E.S.Y.A.J.Y.D..._ L ",
"i.i.I.l.D.N.D.l.i.| ..' m [ 2.b.G.%.9.N.Q.Q.Y.L.D.I.Q.Q.E.Q.^.Q.Y.A.L.(./././._.`.`.`.`.Q.1.j.L.b.g.r.C ).^.).v.Y.A.L.J.A.{ _ L ",
"i.i.A.i.A.c.A.l.i.{ ;.{ m [ 2.d.V.] 6.A.(._.Q.L.I.D._._.E._.I.).Y.L.P.`._./._._.`.`.`.'._.@.0.L.B.f.r.C ^.^.).F.J.J.Y.D.A...{ U ",
"i.3.L.i.c.N.c.l.l.{ ..{ 3 u G H P #.6.4...%.^ Q ! R %.%.R u.).^.Y.L.R <.<.%.| <.1.<.y.1.| 1.u.1.U B B q (.Y._.H.A.L.J.V.I.;.' _ ",
"i.j.Y.i.l.l.c.N.l.{ ..' 7 L I / ( 6.7.9.p.p.0.0.7.7.v.u.7.a.I.).P.L.] F.F.v.p.A.F.A.A.A.u.i.p.i.8.:.{ a (.P./.H.L.A.J.J.Y.;.%.' ",
"l.c.Q.j.i.c.A.c.l.....E M O.r.3.b. .0.L.!.Q.J.Q.I.D._.Q.*.m.Q.).(.A.U F._./.).'.`.`.].`.).y.a.V.b.g.r.C ^.Y./.L.A.L.J.J.J.;.=.;.",
"b.b./.c.i.z.A.l.l...;.' b O.t.d.n.P 6.Y.Q.Q.Y.Y.I.D.).).E v././.!.J.R A.`._./._.`.`.`._.).] p.D.B.g.>.C L.Y.(.L.A.I.Y.J.A.;.+.+.",
"l.N.Q.c.l.j.m.i.l.....' b +.2.d.l.n 6.T._.I.Y.Y.Q.I._.I.W v.)././.D.W F.`.`._._.`.`.`._.`._ k.G.G.g.-.M N.A.(.L.L.Y.I.A.A.=...;.",
"c.J._.A.l.l.c.c.b.| { E M -.2.d.j.J 9.E.Q.I.A.Q.I.)._.Y.W v.E./._.A.W D.'.`.`./.`.`.`._.`._ k.Y.B.f.-.m l.N./.A.L.S.I.N.L.>...;.",
"N.L._.A.N.l.N.l.l.{ { ' M O.2.j.j.P 6.I.T.J.J.Q.Y.Y.)./.W v.Y.)._.D.] ^.`.`._._.`._.`._.`._ k.G.B.t.=.m l.L._.L.N.S.Y.A.A.;.O...",
"l.J._.D.N.N.i.c.b.{ O.+.M O.>.t.d.L 7.I.T.J.Q._.I.I./.Q.] M.)._._.A.] F.'.`.`._._._.`.(.`._ k.G.B.t.-.Z N.Y.I.S.N.S.Y.D.A.;.;.>.",
"l.D._.A.N.l.i.l.l...;.+.6 s d d x ! 0.I.E.I.Y.).I.I.).E.E m./././.A.^ D.`.`.`._._._.'.`.`.] i.i.) B b g P.Y.Q.L.L.N.Y.Y.J.;.;.>.",
"l.D.(.l.l.i.i.i.l.' ;.+.u P I T ~ 9.0.I.D.D.).).E.I.E.E.R v._././.D.] F.].`.`._.`.'.'.`._.i.p.d.1.| { Y P.P.(.A.P.L.Y.J.Y.>.=.,.",
"i.A.I.l.k.j.i.l.b._ ..>.U +.>.d.V.J.I.I.I.z.).Q.).E.E.E.W M././._.I.] A.`.`._._.`.`.'.`.`.).^.G.h.r.-.{ P./.Q.Y.L.J.Y.P.Y.2.;.;.",
"i.D.Y.i.l.l.l.b.l._ ' +.Z O.,.d.b.J.I.I.I.V.E.E.!.I.I.I.$.M././._.Y.] F._._._.`.`.`.`.`._.)._.I.h.r.=.O.Q.P.L.J.J.J.Y.Q.(.2.;.;.",
"3.l.D.i.i.i.j.i.i.{ ' ..Z O.>.2.d.D.D.T.I.x | ] %.! R ^ $.F.E.)._.Q.| v.a.*.%.1.1.<.v.`._._.Q.Q.g.r.=.O.T.P.Y.Y.J.J.J.L.Y.>.;.;.",
"y.N.L.l.j.j.l.q.i...{ ..M O.>.2.d.J.A.J.J.K p.u.i.u.5.7.0.F.E.E._.Y.| F.D.v.v.I.D.p.F._.`._._.G.h.r.-.O.J.J.P.H.P.A.J.J.Y.2.+.{ ",
"l.A./.N.N.l.i.j.j.+.E +.Z O.>.y.b.D.J.L.I.P a.E.E.E.A.I.*.A._.E.).Y.@.I.`._.`.].`.2.G.`._._.Q.G.b.f.-.O.T.J.P.J.L.J.I.L.Y.;.+.{ ",
"i.A.Q.N.b.l.j.j.l.+._ ;.Z O.>.i.b.J.Y.L.I.R v.E.E.E.A.I.] v.).E._.I.%.^._.`._.'.'.' J.`._.Q.!.G.h.f.w.[ Q.A.J.Y.A.J.A.A.J.+.;.+.",
"i.A._.V.A.l.i.i.j.;.{ >.C O.,.s.V.J.T.A.Y.E v.I.Y.Q.I.J.] a.u.Y._.E *.I.)._.`.]._.@.^.]._.!.Q.Y.h.f.-.o.Y.D.I.D.L.J.D.D.A.;.>.O.",
"i.L._.I.J.c.i.i.l.+.+.>.Z O.,.d.n.V.I.D.I.E k.^.Q.).K Q u.v.u.7.@.7.p.D.a.i._.].`.@.S.`._._.Y.I.B.f.e.o.E.^.).A.A.A.b.A.J.>.;.%.",
"j.I.`.Y.I.D.V.A.N.{ ..;.Z O.>.d.V.D.J.D.I.L p.Q._.W 4.u.a._.7.9.v.9.).F.a.a.v.].'.%.a._.Y._.E.G.h.f.r.) E.Y.E.A.A.N.N.c.L.;.;.;.",
"c.E.`.Y.Q.c.D.D.Y.....;.6 a s K P Q ! R R ! p.6.| &.7.I._._.Q.p.F.^._._._.i.F.M.<.*.a.a.{ | ^ ..U ) B g Y.D.I.A.A.N.b.c.Y.;.>.;.",
"c.E.`.I.J.A.N.D.I.O.;.;.u L I  .&.6.7.6.7.u.v.u.7.p.7.I.).).Q.Q._.E.Q.'.`.<.z.I.S.v.D.M.p.p.u.i.:.2.O.c I.L.Q.A.A.i.l.l.J.;.;...",
"l.E.`.E.A.N.A.D.D.O.' ..U =.>.j.c.J.I.I.I.I.).).$.k.I.I.).`.)./._.E._.'.`.`.u.F._._._._.).).I.T.B.h.w.Z I.L.Q.c.A.c.l.j.A.=.{ { ",
"c.Y._.E.D.A.A.D.J.>.U { 3 s d L R I ^ | ! R $.#./ u.Y.Y.Q._./.Q._.I._.'.'._.<.F.a.*.<.y.^ | | { _ ) M g I.I._.N.A.N.l.l.N.+.+.+.",
"c._.`.I.D.N.V.D.J.=.Y | a L I &.7.9.0.u.7.0.F.v.7.9.9.I.Y.).Q./._.I._.`.`.@.D.~.M.F.S.F.p.u.i.p.:.,.{ n I.D._.c.N.N.N.N.A.+.;.;.",
"V.`.`.J.D.A.c.A.D.{ E ' Z O.=.b.J.Y.Y.J.J.Y._._.Q.&.6.Y.E.E._.)._.!._._.'.%.F.`._._.`.`.Q.Q.E.J.B.f.e.S L.Y.Q.N.A.N.N.A.J.=.%.O.",
"i.E._.A.D.z.i.c.A.{ E { 8 a w U ] ] Y | R ! %.<.| &.0.p.E.Q.Q._.`.E._.'.@.y.F.p.*.<.<.:.%.| { O._ [ b g L.Q._.c.A.A.c.l.A.;.....",
"i.I._.A.Z.A.Z.i.m.{ _ { a L G &.i.0.0.9.( ~ p.k.a.0.7.k.Y.^.Q._.`.T.).'.<.A.E.F.a.A.A.F.k.k.d.j.,.,.{ c /./._.c.c.c.A.c.L...{ ..",
"y.I._.D.D.Z.m.y.v.@._ ] Z O.;.i.G.Q.J.T.L./ p._.)._.7.k.0.Q._._.].I.).@.F.F.`.'._.i.D.(.`.(.Q.Q.G.h.-.S Y././.A.c.c.N.A.I...{ O.",
"i.J./.A.I.A.A.l.N.{ _ ' Z [ ;.d.G.Q.J.I.J.R a._.!.I._.i.u.v././.).T.@.M.^._.'.`._.<.I._._.`.E.G.G.h.-.S ^.`._.A.l.A.A.I.L.{ ;.;.",
"1.V.J.i.V.V.A.i.H.{ { %.Z [ ;.d.G.E.V.I.V.R v.!.I.)._.`.7.p.u.I.).E a.D.`._.'.'.`.<.I._._.`.Q.E.G.f.r.Z Q.P.(.N.c.A.A.L.L.;.;.O.",
"t 4 ; 2.c.z.N.i.A.{ { ;.Z [ >.b.J.Q.I.I.I.E k._.).Y.`.'./.6.0.7.$.$.p.)._.'.'.'.'.@.S._._._.Q.Q.B.g.w.Z Q.Y._.J.N.A.A.D.L.2.;.;.",
", + % [ 2.y.I.V.N...O.{ F O.2.d.J.(.!.I.Y.W u.Q./.I.`.`.E u.6.6.p.u.a.M.)._.`.'._.%.F._.`._.G.G.B.g.r.Z _.Q.`.A.c.N.A.N.A.{ ;.;.",
"< * * Z =.i.A.c.c.{ | { S [ 2.l.I.Q.Q.E.R._ u.9.%.| y.y.%.a.S.#.a.I.*.v.u.%.*.y.*.<.F._.).).E.Y.B.f.>.Z (.(._.V.l.y.f.j.n.{ O.+.",
"< * * m @.y.c.c.N...' _ S O.>.g.G.I.Q.I.Q.#.u.p.p.u.J.F.7.i.R.R a.I.^ F.v.v.a.M.I.N.A._.Q.Q.Y.Y.G.h.w.S (.!.`.e.A j r m 2.` +.+.",
", * * m =.i.V.A.j.{ ' ] F O.2.g.I.E.!.D.I.Y.Q.E.).!.].).*.v.!.R a.I.W S._._.)._.`.`.'._.Q._.E.I.B.g.w.F `.`.(.j y 4 # $ ) Z ..{ ",
"= O % m -.y.A.D.j.{ { ' Z O.r.j.V.T.!.D.Y.E.Q.(.).!._._.Q a.R.R p.I.W M.!._.!._./.'._.Q.Y._.E.L.b.f.-.S _.(.G.> $ . . X z M ` { ",
"+ % % B >.y.A.J.l.' | ] 9 e d L R R u.D.I.!.!.!.).).'.).] a.!.W a.I.Q v._.).!.).(.'.Q.Q./._ _ ' ) U z a _._.I.- X     o h M [ { ",
"! @.D ` 2.y.m.D.N._ ' ' g H Y ! / / a.T.R.I.!.!.).).`._.] p.I.E a.I.W F.).).!.)._.'.'.Q.L.] u.q.6.O.W g _._.G.y O   . - k M ' { ",
"W y.2.y.y.j.l.k.i.' ] _ S [ 2.d.Z.! u.V.!.R.!.I.)._._.`.] a.T.R i.T.] S._.).!.)._._.'._.Y.] k.J.b.g.-.Z !._.Q.2.) h p b [ ` ' ] ",
"| d.c.d.j.j.i.l.i.' ' _ F [ 2.d.z.K i.S.!.R.R.E.)._.!.`.] C.T.R p.J.W a._.).!.'.'._.'._.(.| k.G.B.t.-.Z (._._.d.2.{ @.-.d.O.{ ) "
};
