/* XPM */
static char *_9472_0d680b75375664e33264fe802f98bece8947b33c2763f725b184287cb85ff12a[] = {
/* columns rows colors chars-per-pixel */
"64 64 109 2 ",
"   c #AB5E7C",
".  c #A2677E",
"X  c #AD6C85",
"o  c #A17788",
"O  c #A57C8B",
"+  c #A97A8C",
"@  c #B7718C",
"#  c #BC718E",
"$  c #BC7591",
"%  c #B47C92",
"&  c #B87D94",
"*  c #C77796",
"=  c #C27A96",
"-  c #CA7E9C",
";  c #A7808F",
":  c #AA8694",
">  c #AC8A97",
",  c #AF8C99",
"<  c #B48497",
"1  c #B88096",
"2  c #B78699",
"3  c #BC8499",
"4  c #B48D9C",
"5  c #BD8C9F",
"6  c #AE929D",
"7  c #B4919E",
"8  c #BF8DA0",
"9  c #B595A1",
"0  c #BB94A3",
"q  c #B69AA4",
"w  c #BC99A6",
"e  c #BE9CA9",
"r  c #ACA7A1",
"t  c #B7A0A6",
"y  c #B6A2A8",
"u  c #BBA3AB",
"i  c #B3AEA9",
"p  c #BCA9AE",
"a  c #BDAEB0",
"s  c #BBB4B1",
"d  c #BEBAB6",
"f  c #C3849D",
"g  c #CA829F",
"h  c #C2889E",
"j  c #CA86A0",
"k  c #C58DA3",
"l  c #CC89A3",
"z  c #D18FA8",
"x  c #C294A6",
"c  c #C991A6",
"v  c #C098A7",
"b  c #C596A9",
"n  c #CC93AA",
"m  c #C49CAB",
"M  c #CA9BAD",
"N  c #D395AD",
"B  c #D199AF",
"V  c #CE9DB1",
"C  c #D59CB3",
"Z  c #D89FB5",
"A  c #C3A1AE",
"S  c #C7A4B1",
"D  c #CCA4B3",
"F  c #CBA9B6",
"G  c #CDABB9",
"H  c #D3A2B5",
"J  c #D8A1B6",
"K  c #D4A7B8",
"L  c #DAA5BA",
"P  c #D3ACBB",
"I  c #DBABBE",
"U  c #C2B1B5",
"Y  c #C4B6B8",
"T  c #CEB0BC",
"R  c #C2BDBA",
"E  c #D4B1BE",
"W  c #C5C2BE",
"Q  c #DDAEC0",
"!  c #D6B3C1",
"~  c #DDB2C3",
"^  c #D7B9C4",
"/  c #DDB9C7",
"(  c #DEBCC9",
")  c #E1B5C6",
"_  c #E3BBCB",
"`  c #C7C4C0",
"'  c #CAC6C3",
"]  c #CDCAC6",
"[  c #CFCCC9",
"{  c #D1CECB",
"}  c #D3D0CD",
"|  c #D6D4D1",
" . c #D8D6D3",
".. c #DBD9D6",
"X. c #DDDBD9",
"o. c #E5C0CE",
"O. c #E6C4D1",
"+. c #E8C7D4",
"@. c #E8C8D4",
"#. c #E0DEDC",
"$. c #E2E0DE",
"%. c #E5E3E2",
"&. c #E8E6E5",
"*. c #ECEBEA",
"=. c #F0EFEE",
"-. c #F3F2F2",
";. c #F8F8F7",
":. c #FBFBFB",
">. c None",
/* pixels */
">.>.>.>.>.>.>.>.>.>.>.>.>.>.>.>.>.>.>.>.>.>.>.>.>.>.>.>.>.>.>.>.>.>.>.>.>.>.>.>.>.>.>.>.>.>.>.>.>.>.>.>.>.>.>.>.>.>.>.>.>.>.>.>.",
">.>.>.>.>.>.>.>.>.>.>.>.>.>.>.>.>.>.>.>.>.>.>.>.>.>.>.>.>.>.>.>.>.>.>.>.>.>.>.>.>.>.>.>.>.>.>.>.>.>.>.>.>.>.>.>.>.>.>.>.>.>.>.>.",
">.>.>.>.>.>.>.>.>.>.>.>.>.>.>.>.>.>.>.>.>.>.>.>.>.>.>.>.>.>.>.>.>.>.>.>.>.>.>.>.>.>.>.>.>.>.>.>.>.>.>.>.>.>.>.>.>.>.>.>.>.>.>.>.",
">.>.>.>.>.>.>.>.>.>.>.>.>.>.>.>.>.>.>.>.>.>.>.>.>.>.>.>.>.>.>.>.>.>.>.>.>.>.>.>.>.>.>.>.>.>.>.>.>.>.>.>.>.>.>.>.>.>.>.>.>.>.>.>.",
">.>.>.>.*.%.$.X. .X.X.&.%.X. .|  .[ W  .%.&.X...X.$...{ } -.;.$...X. .' ' %.&.*.&.%.X.X.| ] { %.=.=.$... .}  .*.$.-.X.#.>.>.>.>.",
">.>.>.>.%.$.X.X...} ..*.%.X. ...X...' ' *.*.&.%.$.X.X. .X.' &.-.#.| |  .%.X.'  .X.&.%.$.X.} ..&.&.#.X.X.$.X...:.=.*.$.*.>.>.>.>.",
">.>.>.>.%.#.X. .X.X.] $.X. . . . . .%.X.$.$.X. .......W X.#.} { } }  .' d *.&...X.X.......] ..#.X.X.X.X...%.-.-.*.*.-.:.>.>.>.>.",
">.>.>.>.$. .| ] W  .#.#. .| | { ] W [ } %.&.X..... . .} W &.*.X... .' ' { [ $.$.%.$... .[ ' %.X.X.X. .} } $.=.&.%.*.*.-.>.>.>.>.",
">.>.>.>.$... .[ ] | X... ... .{ [ '  .X.$.X... . .} { %.-.| | { [ [ ` [ &.$.| X.X.| | | ] ..X.X.X.X... ...| #.$.#.$.%.%.>.>.>.>.",
">.>.>.>.&. ...} X...#.$.X... .| } [ ....X.%.X.X.X...] } ] %.*.#.X...} d i #.*.&.%.$.X...{ Y [ =.&.%.#.X.X. .$.X.....$.$.>.>.>.>.",
">.>.>.>.&.| &.| %.#.%.%.$.X...|  .[ d R *.*.X.....X...' i *.*. .| | } ' ' &.X.X.X.X...| ` r { &. .{  .] ' } X. . .} X.X.>.>.>.>.",
">.>.>.>.[ X.&. .%.*.$... .X. .' d ` ' ' X.[ [ &.} ' Y q u %.&.|  .[ y 9 4 ' ` W &.] ` ` R ' 0 9 9 p U y 6 X. . .{ ] ..X.>.>.>.>.",
">.>.>.>.X.X.` -.' [ > ; : { ] ' ' w w e e s s [ W R u A u U W X.Y u m e e e ` ` } ` ] 2 0 8 0 0 0 0 0 4 > u { ..] W ..X.>.>.>.>.",
">.>.>.>.| ` | $.} [ : , 9 w w m b 0 m S M w m m A A S S F S S F S G S S S M b e m 4 & x x M M M b b x 0 4 : W .. . .X.} >.>.>.>.",
">.>.>.>...| } | ` R ` 4 w e A M b D D b x D F P G P P G P P P P P P P P D V D M V 3 b D S H D V V M M w 0 X.X.$.X.X.] ..>.>.>.>.",
">.>.>.>.#. .} [ } ` W 7 e A M M H P l V ! P I P ! ! P ! ! E E I P ! ! P P C K P M n P K M N B C D V b x 4 X.&.$.X.X.$.*.>.>.>.>.",
">.>.>.>.$...|  ...| ` q w S M M P n C ! I I ^ ~ Q Q Q Q ~ ~ ~ ! I I ~ I Q Q ) L n I C N H L Q L K D V x 4  .$.X. . .X.%.>.>.>.>.",
">.>.>.>.&.....} X...` ] m S n K B z ) ~ ~ ~ ~ Q C Q ) ) ~ ) ) Q I ~ ~ ~ ~ ) I L I K N L ~ ~ Q I K H D x } X.X.....|  .X.>.>.>.>.",
">.>.>.>.&.X.$. .%.X.] ` m M b I g Z Q I ~ Q L ~ Z ) ) ) ) Q ) I ) ~ ) ) ) ) Q I I H Z C C L I Q P P V 8 [ | .. .| }  ...>.>.>.>.",
">.>.>.>.X...%.X.%...%.{ S b M K j I I ~ L I _ ) Z ) ) ) ) ) I Q ) ) _ ) ) ) Q ) Q N C J L ) ) Q I G K e ' ' | } } } | ..>.>.>.>.",
">.>.>.>.| ..%...&.X.` W S M V K z Q Q ) Z _ _ _ Q ) ) Q ) Q Q Q _ ) ) _ Q ) Q Q g Z Q Q Q _ _ ) ! P M A ` d | } [ [  .X.>.>.>.>.",
">.>.>.>.' &.#.| *.X.` ^ S D V C N Q Q L ~ _ _ _ ) _ ) ) Q Q I ) _ _ _ ) ) ) ) L * I J L Q ) _ ) ! I 5 m 9 ` [ } ' W  ...>.>.>.>.",
">.>.>.>.X.*.[ %.#.&.] u M G H C Z Z Z ~ ) _ _ ) ) _ _ ) L L L Q o.) ) ) Q ) Q C z J Z L Q ) _ Q Q P M b w ` Y .. .[ %.' >.>.>.>.",
">.>.>.>.%.d [ &.i ' q e S P ! K L J L ) ) _ _ _ ) ) ) ) L L L ) ) ) ) _ ) ) Q Z l C L J I Q _ ) Q P V 5 w ` Y ..$.} ..' >.>.>.>.",
">.>.>.>.} ' ' [ d ' q A F G ! Q L z L _ _ _ _ _ _ _ _ _ ) L N Q _ ) ) _ ) ) L N - N Q L L Q _ ) ! I F v w X.*.#.X.%.$.*.>.>.>.>.",
">.>.>.>. .} ' ` } } i A F P ! ) Q j Q _ _ _ +.+._ _ _ _ _ _ L z ) _ _ ) ) _ Q l N L Q Q Q L Q ) ~ E D M p ] *.%.X.&.$.*.>.>.>.>.",
">.>.>.>. . . .{ ..} { A F P Q ( _ Z N ) _ _ _ +.+._ O._ _ _ ) Z z Q _ ) _ ) ) z Z ) Q Q Q Q Q L P H D b s ] X.#...X...&.>.>.>.>.",
">.>.>.>.X.} ..[ X. ...Y F ! ^ ) ) _ L Z _ _ _ _ +.+._ _ _ _ ) _ Q N J ) _ ) ) ) N Z Q _ ) Q Q Q I P G A [ &. .#. ... .%.>.>.>.>.",
">.>.>.>.-.{ X.} X.X. .X.F ! ^ ( _ _ _ ) ~ ) ) _ _ _ _ _ _ O._ ) ) ) J J Q ) _ _ ) N C ) _ ) Q ~ I P H m R } X.X.} ....$.>.>.>.>.",
">.>.>.>.%.} *.} *.*.&.` F ^ ^ O.O.O._ _ _ ) ) ) _ _ _ _ +._ _ _ ) ) _ ) Q J Q ) _ _ L C Q _ ) ~ ! P D m R ' X. .}  ...X.>.>.>.>.",
">.>.>.>.' X.&. .%.*.%.U F ! ^ ( O.O.O._ _ _ _ _ ) _ _ O.O.O.O._ _ ) ) ) ) ) Q Q Q ) _ ) I L ~ ~ ! P D x < R ..] }  ...X.>.>.>.>.",
">.>.>.>.$.X.W -.' i u e F G ! ( O.O.@.@.+.@.+.O._ O.+._ _ _ _ +.o._ _ _ ) ) ) ) Q Q ) ) ) Q I I I H M 5 9 7 ' [ %.} W  .>.>.>.>.",
">.>.>.>.| W | %.} ' q e S P ! ~ _ _ +.@.+.+.@.@.+.+.+._ +.+.+._ o.O.O._ _ ) _ ) ) Q Q Q Q Q I L L H M b 4 7 i [ -.W X.#.>.>.>.>.",
">.>.>.>.X... .[ ' X.Y u F P ^ ) ) ) _ _ _ _ +._ _ ) ) _ _ _ _ +.O._ O._ _ _ _ ) ) _ _ ) ) Q Q Q I L D x q %.=.$. .&.$.' >.>.>.>.",
">.>.>.>.X... .} ..X.' R S S K H J ) _ _ _ _ ) ) _ ) ) _ _ +._ _ _ _ _ _ _ _ _ _ _ _ _ _ ) Q Q Q I P D 5 W %.*.*.} *.{ &.>.>.>.>.",
">.>.>.>.#... . .X.X. .R F D P ) _ O.@.+.+.+.O.+.+.O.+.+.+._ _ _ _ _ _ ) _ _ _ _ _ _ _ _ _ ) _ Q I H n 3 X. ...$.} #.[ -.>.>.>.>.",
">.>.>.>.%. ... .X...&.[ F E ( _ o.O.O.O.+.+.+.+._ +.O._ _ _ _ ) ) ) ) ) ) Q Q Q ) ) ) ) ~ I I J H M b x U  .} X.[ ..} X.>.>.>.>.",
">.>.>.>.&...X...X.X.[ s A E ^ { o.O.+.@.+.+.O.O.O._ _ _ ) Q ) ) ) ) ) Q Q Q Q I L L L J J Z Z Z C H D M w { } ..[  .|  .>.>.>.>.",
">.>.>.>.*.$.&.X.%.*.] p w P / _ O.o.+.O.O._ _ _ _ ) Q ) ) _ _ _ Q L Z Z Z L I L L I I I Q Q I ~ I E G A w q } } W '  .} >.>.>.>.",
">.>.>.>.*.#.%.#.X.*.X.4 S E ! / _ O.+.O.+._ O._ Q L ) _ +.+.O._ Q L ) ) ) _ _ _ _ _ _ ) ) ) ) ) ~ E H M 0 4 ] d [ ' ] | >.>.>.>.",
">.>.>.>.' .. .X...d ' < x P ! ~ o.o.O.@.o.o._ L C _ _ _ _ _ _ J Z Q Q ) _ _ ) ) ) ) _ ) ) Q ) Q Q K D b 0 + ' i &.} d %.>.>.>.>.",
">.>.>.>.' %.[  ...d W 7 b G P / o.@.O.+.o.) L I ~ ) _ ) ) Q N J ) _ ) ) ) _ _ ) ) ) _ _ ) ) ) ~ I K b & X ' &.#.%.[ *.X.>.>.>.>.",
">.>.>.>... .W ' } ] W 0 m P H / o.@.@.o.O._ _ L L ) J L Q L Z _ ) ) ) ) ) Q L I I ) ) Q I I C z j = $ & ` ` X.*. .$.%.' >.>.>.>.",
">.>.>.>.X. .[ [ } } W ' v F H E _ O.O.o.O.O.) N Z _ Q L _ O._ _ L Q _ _ _ ) J L L Q Q L C J Z B n n 3   ` W X.&...$... .>.>.>.>.",
">.>.>.>...| } } }  .] ' S G E H _ o.O._ _ _ Z Z ) _ _ L ~ _ _ _ L ) o._ O.) C I ) _ _ o._ _ ~ Z j $ M 2 } &...%.X.%.X.X.>.>.>.>.",
">.>.>.>... .| } | ..} ] S E E I H o.o.o.O.Q C Q _ _ _ _ I Q _ O._ _ _ _ _ _ J J ) ) o._ ) ) I g = # b b ` ] X.%. .$.X.&.>.>.>.>.",
">.>.>.>.X... ...X.X.X.} A P P ) H I o.o.o.J Z ) _ _ o.o._ ~ ~ o._ _ ) _ _ _ ) B Z _ _ ) ) _ H g j h x 0 ' ` ..X.} ....%.>.>.>.>.",
">.>.>.>.$.X. . .X.$.| v A F I E E N ) E _ J J ) ) _ { o._ ( / ( ) ) ) ) _ _ I I j C ~ ~ ~ ^ C f k k M x q W  ... .} ..$.>.>.>.>.",
">.>.>.>.*.$.X.X.$.&.X.w b V D P ! H M ! ! P K ! ! ^ ( ( [ _ ~ ! ! ! ! ! ! ! ! P H j V ! ! P V & k x M e 9 R W { ] { ..#.>.>.>.>.",
">.>.>.>...' X.X.$.X.X.4 0 w b P P P k D P H D G P P ! ^ ( ! ! ! E E P F G E E D S D x k V D V @ 8 x w 0 4 ' r d  .' ] } >.>.>.>.",
">.>.>.>. .X. . ...` 6 9 w b M S S S M x m S S S F S G T F G T F F A b b A F S S M A M 0 2 x m 8 X < 0 4 4 : { { X.$.X.X.>.>.>.>.",
">.>.>.>.....W ] X.[ p 9 q 0 0 u b w w e ' ` } ` ` m u u e e Y X.W p 0 w e R W [ s s 9 0 0 < ` ' ] { . + + o *.=.X.X.#.%.>.>.>.>.",
">.>.>.>.X...] } |  .X.y Y a 4 9 q ] W W ` ' &.W ` ' 9 4 y [ ..| &.%.u 9 Y '  .&.] ] X.] ' W d ' } #.| X.#.o  .%.X.X...&.>.>.>.>.",
">.>.>.>.X.X.}  .| X.| ] | {  .&.} r W | X.X...X.X.&.' ' [  .| X.*.*.i ' X.X.....X.*.&.R d [  . . .X.%.&.#.W {  .X.$.#.=.>.>.>.>.",
">.>.>.>.$.#.....X.#.X.X.#.$.&.=.[ d [  .X.%.%.&.*.X.i d } X.X.X.&.%.[ } ]  .X.#.#.%.#. .X.{ { |  ...X.#.#.X...|  .X.%.&.>.>.>.>.",
">.>.>.>.%.%.$.#.%.#. . .X.X.X.X.X...[  .}  .X... .%.&.[ ` [ ] } }  .-.%.{ { |  . .X.#.#. .' ] } | .. ...X.} ] {  ...#.%.>.>.>.>.",
">.>.>.>.-.*.*.%.&.=.#.{  .X.#.X.%.' [  . .$.%.%.$.[ } ' `  ...X.*.&.W }  .|  ...X.&.%. .[ W ] } |  . .X.X. .W ] } ..%.*.>.>.>.>.",
">.>.>.>.:.-.*.*.-.-.%.X.X.X.X.#...[ ............&.*.d '  . .} { } X.X.W ...... ...$.$...$. .| |  ...X.#.] X.X. .X.$.%.*.>.>.>.>.",
">.>.>.>.*.$.*.=.:...#.#.X.#.&.&...} $.$.%.&.X. .' X.%.| }  .#.-.&.' #. .X.X.$.%.&.*.*.' ' ..X... .X.$.*... ...X.X.$.%.=.>.>.>.>.",
">.>.>.>.X.X.-.$.*. . ...#.=.=.%.{ [ } X.X.%.*.*.&.%.' '  .....%.;.-.| { ..$.X...X.&.%. .R {  . . .X.%.&.*. . .X.$.%.*.-.>.>.>.>.",
">.>.>.>.>.>.>.>.>.>.>.>.>.>.>.>.>.>.>.>.>.>.>.>.>.>.>.>.>.>.>.>.>.>.>.>.>.>.>.>.>.>.>.>.>.>.>.>.>.>.>.>.>.>.>.>.>.>.>.>.>.>.>.>.",
">.>.>.>.>.>.>.>.>.>.>.>.>.>.>.>.>.>.>.>.>.>.>.>.>.>.>.>.>.>.>.>.>.>.>.>.>.>.>.>.>.>.>.>.>.>.>.>.>.>.>.>.>.>.>.>.>.>.>.>.>.>.>.>.",
">.>.>.>.>.>.>.>.>.>.>.>.>.>.>.>.>.>.>.>.>.>.>.>.>.>.>.>.>.>.>.>.>.>.>.>.>.>.>.>.>.>.>.>.>.>.>.>.>.>.>.>.>.>.>.>.>.>.>.>.>.>.>.>.",
">.>.>.>.>.>.>.>.>.>.>.>.>.>.>.>.>.>.>.>.>.>.>.>.>.>.>.>.>.>.>.>.>.>.>.>.>.>.>.>.>.>.>.>.>.>.>.>.>.>.>.>.>.>.>.>.>.>.>.>.>.>.>.>."
};
