/* XPM */
static char *_746_b6f81c78f971e6c5c1080a29f0271ac489faaf252661920009194b3f2fb2b8e1[] = {
/* columns rows colors chars-per-pixel */
"64 64 53 1 ",
"  c #19160F",
". c #171612",
"X c #1A1612",
"o c #1D1A14",
"O c #1E1D19",
"+ c #221D16",
"@ c #291F16",
"# c #221E19",
"$ c #291E19",
"% c #252017",
"& c #292017",
"* c #25211C",
"= c #2A241D",
"- c #262521",
"; c #2A2621",
": c #2C2923",
"> c #2E2C28",
", c #312C25",
"< c #392F25",
"1 c #322E2A",
"2 c #343127",
"3 c #34312C",
"4 c #39332C",
"5 c #343330",
"6 c #3A3631",
"7 c #3D3932",
"8 c #3E3F3E",
"9 c #ACD777",
"0 c #ADD976",
"q c #AED77A",
"w c #AFD97A",
"e c #B2DB7D",
"r c #AECE85",
"t c #AFD184",
"y c #B2D586",
"u c #B5DC83",
"i c #B8DE87",
"p c #B5D68B",
"a c #B6D98B",
"s c #B9DB8E",
"d c #B7D591",
"f c #B9D693",
"g c #BCDC93",
"h c #BFDD98",
"j c #B7E083",
"k c #B8E086",
"l c #BAE08A",
"z c #BFE095",
"x c #C0DF97",
"c c #C0DF9A",
"v c #C0E196",
"b c #C1E19A",
"n c #C5E2A0",
/* pixels */
";:>:>>:>-;;;;*-;:=*==;====:=;>;;=;=;=***&=;=======,==:<1,;::::=@",
"=*##oO+oOoXoOoXXoo Xo+o XOooO%*o++++%X  oO+o+o  +o++++#+*%%+++@+",
"*+++hffffdghhghhhbzgssghgggg+%+Oo.++zzzggaaapdpgdddaasgdtygh&+@%",
";+#O#hffdghgfghggzhgzghgggg,%ohzzlO+*zghgggssshhgxsssxgsagf4%+++",
";Of.O#hdgzsggbhxgzzzzzhghg1*+hzzzgzO+*hsgghzhbbbcbsvvhgigg4=%s%+",
"*XddOoOdggsvcchxlvvvbghcz:++zzbbzzgg+**ssfggsbhbnbvvvsssg4=&sa:+",
"$opff#o#aahbvvzzvbbbbhbz1++hbbzvvzzzz%**pgssszxnnbxllsys,=*ppg,+",
";offhfoo#gxggzglvbbbshh1*Ohbzzvbvvzsgg***pisszbnbvvsipy2*#ppah,$",
"*odghffO+*faslzzzzhsgz3#Ohgzzzzzzvzibgs&**agghbbzggiuy4++paghc1*",
"-ofgzhhhO#-ggsghggfah>*OhhhzzzzzvvgvzghgO*Ogggczzzlay2%+pysnch2*",
"-Ofhbnnfg#*-gggzgaag:%#fgg22:zzzbhz32>hap***ggsgzggp1*#yysbncg1;",
"-OfhhbzgapO-:gzzsag1*+hg:#*O**zzzz:%***iig%**gpggsp4&*uyavbbgg,*",
"-Oggznhhsaa*--gaag1*+hh1*ywq9*:33:-yu9*=:hg+%*ssas<&*sysvbbvch,+",
";*shnhhsssfd->-ag1*+gc>#eqew9u*O**uiq9ww=&gh**=ss2&#giigbvvbcp,+",
";#fcznzgzzgas-->3#Ohhc;Oqueeuuikeuukwewe,+hgi**:<*$gsgvbvlvbpi,+",
",*hhnzzzzglppd>-*#aghh;oueeuuskewuuwwwwe:*zspd==*%sgsgvvlbbsya,&",
",*scccgggsaypp3:-*pggh;#uuiijie0jjeweewi;*zssp2==%ggsggszbhipa:@",
"1;gcncgzsyyyp4=*:**ghcg*uauujeejje0ejqu3#lsgs4=#=&+gaaigbziiap,+",
",*cnbggsiyyp4=*sf***hhg-#iuwwwjleweuiuj*Osgs4=&yp@@=saihgisgsy=+",
"1&ncvvsiyas4=*hhgg-**hhz*Ow0wulewjiuuu=*sgh4&$yppy@&=tpssivzia=@",
"2=bvvviiaa7=*ggzhsg***hhg%%ueiewjljuu:%sxg4@*pdggpp+%&ypsgxsds=@",
"2=ssvsaas7:=sfggszhh*;;ghs%Oie0uljuu;*lhh4=&yasgsgsp**@yasgxsx:+",
"4=igzsap7,;fsgzgzzbhf#-;gszO*quiueu*%sgx6&&aaizgzzggp&&=yaxssx,+",
"4=svssg7:;sasgzgzbbbcg--;ghgO*-uq;+oszx6:*aasbzbbzbsyy&$$adsxx;@",
"4:zlgz62=gasgzszbbbnbhs--:hhzs%*Ooihhh4:=aaszzbbvzvssaa$@=gxxg,+",
"4:igz7:=lsszszzzbbbbbhsa*==ghhsX szgg7,=aagzshbbhzzslgaa@@@xfg:#",
"6:hx72-say32:zzzbbb531zss=&=xzhgzggg7:=aah23:vbvzgs33>iaa$@=pa,#",
"6:b7:=ga:#*O**zzbv,****shc===ghgggg85:ya:**O**zvzl,#***ixf&=*g1*",
"4,2>=zg:*uweu*:33:*uuu**,sd==:ggds61>tu>*suqu*-53>*w00%&,ss$=:,*",
"6>=:gz:*queuqu*O**uuu9q9=&ia==1444=:df>#wqquuu*O**ww0eei&&hf==**",
"6=:szz-Ouueeuuuuueujqwwu,+ssx=;==@*fgs;Owwwuuquqwuwjejue,+gyy;=;",
"42zzzz;*qqwweuuuquujwuji:*ghg<=ry=*dag;#qqwuuujwwwwwuue0:*sig2*:",
"7,gggz;Oeeeeejeejkjeuiiu=*bff3:tp1*aas=#uuuujujjuejjee0e=*iga2;;",
"4>3sssz*eeeejeejjkjeiuu,*zhpg2:,41=yysh*uuuijkjeeee0000,*ilzg5:;",
"6>>3sgz;%eeeeeekjjejuau-ohdd6;**$*=:pgs;#quuujjeejee0we*oigg4<=,",
"3>>>>sss*%eeejkeujujuu:Ozgg7>*gfgp===ashOOuuueejkje0ee:*igf4===:",
"3=s;->agi*Oquiuejjwwu;%zzh3;-gzzhig&==hgs*%ueeukkewee:+ssf6,=a,,",
"2*af-**ssu%*iuejjweu;+lzh3**sggzhhhg===gzg%%uujujeee:%igd4;&pp4=",
",+sga***ssg+#uwewwu=+zzg3-*ahgzbbbzhc*&=hzz%#iieeej=Okgs4=*ayp1=",
"1*gasg***gszOO:q9=+Ogfg3*Oaggzzzbvzbhh=&=gzzoO;ee:%olzg3&&adss4,",
":*aasgs*--sggiO*Oossag<$%tiggzzbvbzbzhg**=xxxs#*Ooisgg4**sssgp3;",
":oyghapy***gssiXXlgpp1=+pagzgzzzzzzzzhgg;==fxggX sggs4;&spsggp1=",
",#dhgsapa***pssgzssa<+#yah2,:gzgzgh321gsx$=<gdgglgsa<=*gpsggda3;",
";#dssgsgdg=*;psgaas1#+ys:#*O**zgzz:****ssf$;1sscxgf6&*sppghssd1:",
"*+yagggzspy**;pdpg3*#ya:*utuu*:33:*uqu*=,ss$=1dggg1*#spysggayy3:",
";+tdhbbhhapy*-;gf3**pa:*qqiuqu*O**uuuuwu=$gy$;,fp4*$gppsghiads3;",
"*+ygcbhggsppg*=:1%*ass:#uujeuuiuuuuuuuwe,+spd*;16*#gassgzsiggf1;",
";ofgczszggsfhg*=&+aasz;#uuuukujewwwjjwej:#sxgf*::;gsiggzhlzhgf3*",
";ohhssszssccch,$##gsgh;#iuiiklueejeeeuui;*zzgd:->:fdgggzzggsgd,#",
";ohdsssssxfcc1$#*$&ghzz*uuijljejjeeeuee3#zbfs4*#-::dashbzzgggp:#",
"-odpyssdgffh5*#df###ghz;*aiuiejjeeujuee*ozgd1*#pd>::ppfblzggpr:#",
"-+ptshsghfh1;#ddfp*#*hcgO*qiijjjejjuew:Ogsy5-#ppdf;--fgggvvgyy:#",
";#trfcgfdf1*#fffhddoo*hhg*+uujjejjjew:%ssy>#Oddgfgp;-*pfsghapd,#",
"-#rdhhfff4*#ffhccchdO%*hhz%*uuuwjkkk;+lsp3OOpgfhhfda-**pysggff:+",
";+tfffff4*Opdgcccbcgso++ghg+Ouqujll=+zsa>*Ofgphvxgggp#O#pgfhfp,#",
",+fffff1-#ppgcccccchgsoOOgggO*:ui*++lzs>+OafghzggggsgaOO#dghgp;#",
":#ffdf,##ppgfhbczhzzzcfO#*ggzzOOOozlgs:%XaaggzhghzggsppOo#faat;O",
";#dtp1oofppghhchgzbgzbhgOO*ggzzo gzsg;+OgfghzzbzbzzzgsggooOppt=O",
";#dy:#offghccbchggggzbbhfOOOghzzvghz:ooggahzzbbbzzhzzzfffXoOas;o",
";Og:OopdgcbchzghzgzzzbbbvgOOOgzzvhs=+osgishghhzhbzzzggsdpaoOOz-o",
"=O*OXapdhcnggasfghgzzbbzzhhoOOzzgg=  pppaggffghghgsgiafgafa.O**o",
"-OoOaapdffdpptpsgggggzzzhxghooodg;*oyppypaptyppadfpfffgsssdgOXoX",
"-oOO*;;:;;*;;=;;====;;=---**Oo.+**XXO;;*=;;=*;*--****---->>-*.oo",
"OOOoOO XXX+X+XXXooo+OOXo.oXXoo++OOOXXXoo. .XoXX..o........Ooo.oo"
};
