/* XPM */
static char *_2540_73577ca556d3d3c4ae27c4e66efb73cb0bdcd3d53d58206ca6b464d11af2bac0[] = {
/* columns rows colors chars-per-pixel */
"64 64 53 1 ",
"  c #17150F",
". c #19160F",
"X c #171612",
"o c #1A1612",
"O c #1D1A14",
"+ c #1E1D19",
"@ c #221D16",
"# c #291F16",
"$ c #221E19",
"% c #291E19",
"& c #252017",
"* c #292017",
"= c #25211C",
"- c #2A241D",
"; c #262521",
": c #2A2621",
"> c #2C2923",
", c #2E2C28",
"< c #312C25",
"1 c #392F25",
"2 c #322E2A",
"3 c #343127",
"4 c #34312C",
"5 c #39332C",
"6 c #343330",
"7 c #3A3631",
"8 c #3D3932",
"9 c #3E3F3E",
"0 c #BE7DDB",
"q c #C17EDE",
"w c #C27EE0",
"e c #B986CF",
"r c #BC87D5",
"t c #BE8BD5",
"y c #BF81DB",
"u c #BF88D8",
"i c #BF91D4",
"p c #C08ED7",
"a c #C284DE",
"s c #C38CDB",
"d c #C293D7",
"f c #C593DC",
"g c #C896DF",
"h c #C699DB",
"j c #C999DE",
"k c #C484E1",
"l c #C68AE1",
"z c #C88DE3",
"x c #C791E0",
"c c #C995E1",
"v c #CC9BE2",
"b c #CFA0E3",
"n c #D0A2E4",
/* pixels */
":>,>,,>>>;>>;=;;>-=--:---->->>>:::->--=&-------->>>-->12<>>-<--&",
"-=$$OO$+OOXOOOooOOO.O+OoOOOO@$$@@OO@@O .O+@OOO.o@.@#@@@@@&&@@@&&",
"=@@@hhdhfffvjgvjvvvcjfgjcghh$$$$OO@@cjjghsffffphhddpsfgstshv*@&&",
":@$+=hdhfcvhjgvjcvvcggjgfjj<$+xvcgO@&vgvchcfhfhjjjjsgvgfsfj5*@@@",
":+hO+=jffvfcgbjcxccxvvvhvj3==vvvvfvO$-hcccvhvvbbbbzcvvcfgh5-&f$$",
"=oid+O+sggxvvbvvxvvnbgvvv<O@vvvnccvc@=-ffxcccvvbbvvvvcsgg5-&ff>@",
"%Otdh++$sfvnvvvccnvnvcvv2@@vvvvvvvvcf===ixfxcxvbnvcczfss2-*ssf<@",
":OdhhfOO$fvcccccvvnnfvv2=Ovvvcvvvvvccf===ftscvbbbccczss1$$ppfv<%",
";Ohhvfh+@=ffxcccvvvscv4=@jgvvcbcvvvzvcf*==fxhbbvccclss3@@ssgjv3-",
";+dfvvhh+=;fffcvvfffh3&+vvvccnccvvcvvcvg+==fvcvvvvxsr3*@spfbvj3-",
";+fhbbbhf+=;hcvcxsff,@$hfj33,ccvvcc622cst===xhccccgs2=$apsbnbf3;",
";Ohhvbbhfs$;,cvcffc,=@vf>=$+=;ccvc2%==:sff=$-fifxgs5=&sssvnbjf<=",
":+fgbbccftf=;;cfff2==jj,=ayyy=:67,;yly=&<cg@&&ffsf1=$sszvnnvvj<$",
":$fvbcbcxxfx;,;tc2=+jj2$yyy0ya====uly00y-*jv-==ff3*%gzfcnvcvvs,&",
":&jjbbcccbcix;,,3$@jjv:+yayaaallyyll0q0y,@vfs-->2*%fxcznvzvvss<@",
"<=jvbbcvvcciuu,;;@fjjv:$ayallslq0alaqq0a>=vftf---$fgccvvzvvgss<%",
"2-fvbvcvcfsstt4;;;ifcv;$tkzllzawklw0kaqa:=xgft3--&jgsgcxcncssh>%",
",-dbbvvcsstss5-;:=-fbvc=allkkkkklwqaaaa2$xxff5-&-*%hsfzgbcfzss>#",
"3-jbvvccstst5-=ff;=-hvv;$la0qkkzwwkllal-@sjh5-&td*#*fsfcczfcss-#",
"2*bbccfstfs5--hvvd-=-hvv=$u00kzkwkklks>&xvj5-&tffp@*-rsffzccss-@",
"3-ncccxsfp8--xhbvff===cjc=$aal0klzkas-@xgj5-&ffffsp%$*psggcgff<@",
"3-cxvcsxf8<-ffhvxvvh;;:hvx&@l00lzsks>&cvj5**tsscggsp*$*rsgccgg-#",
"4:scvlfs8>>xfhvccvvvf;;>hfv+=yylaaa-$xvc5-*slcccxvcgs@*-psggjg<@",
"5-xccfc8,:fifxccvvbbvf;;>fjvO$>uy-@@xvj7<=sfxvvvbcbgss*%*sgggg-#",
"5>xccc8<-fffccccvbbbvvf-;>fvccO=$Ofcvv8>=ssgvcvnbccxfsf%*-gjvj<$",
"5>zcv8<-ffcvcccvbnnvbvgs-;-jjvcO cvvf8>-fscvxvbbvvczxgss##*jjg<$",
"5,jv8>;fst3<>ccvvbv722xff---vvvvvvvf8>-dfc33<vbvvcf622lgs-#-ff>=",
"7<v8,;cs>==$==vvbv<$$=:cvv*--fvvfff92:tf,$=+=&cvcz<$==-sjj##=g,&",
"5<3<-hf,=yyya=>66,;aaa&&<gh--<hfhf76,eu,=syyu-;65,;0q0@*<ff%-><&",
"5,<>fv,=ykqyky====aaayyy-*ss--<533-:fx,=y0aayy====q0qqqa-*gf-==-",
"8>-hvv;+akakkaask0klly0a<@sfh::---&ffx>+00yllayyyaqkklaq<@vps:-;",
"5<jjvc>$ay0kaklaakkkakkl>=vjj1-rp--dfx>$00aakkka000akkaq>$ssf3->",
"8,hccc:$aaqwkkkwkllklzsa;=bch4:rp2-sfg:$ysllkkkkkkkkwwwq==lgf3:=",
"7,3ffcc=00qkkkkkkzkalla3=vhff5:<3<-spsc$aylllzlkkkkq0002=lxcj4>>",
"7,6,cfc;$0akwkkzkzkllaa=Ocfi7:-=*---shx:=yaaklkkklkq00y-Olvc11>>",
"5,>,,fxc$=00kklkklllaa>=vcf8>-hfcs--:scc==sakkwklkw0ya:=scf5-%>>",
"3:f::>ffs==yallkkkkwy>&vvj4:;vvvcgc=--jjx==aakkzlk0yk>&fgg7>-s1>",
"<=fd;;=sfl&@slkklkka:=hjh6;=fhxcvvjf*-*vvc&@aklkkwak;&lff5:*ss5-",
"1$fff==;fff$=ayawyy:+cch6==fvccvbbvvv&=:vcv=$kskkak-&xcf3--psp3-",
",$cfsx===vfcO$:00-@Ofhc4==sfccvvvvvvvv=*-cvcO$:ak;O@fvc4**ssfh5>",
",$ssgff==;fccl+=+Osgfh1$$sfcfcvvvvvvvvj=->xvvg$$@Oszgg5=:sffff6:",
">$sfjfps===fgxsO.fffs1-@tffvvvvvvvvvvccg:%>gjgco.gxff5:=ftfcfi1=",
">@fjcfsss===ffxcgffs<@$sff33,cvjvcc722cfg%-<ghxccggf1:;fsfccfs6>",
":$hsxgffhg===ssvfsf2$@ss:====&cccx<$$=;fgf%-2sfvvgs7=%ftffvfsa4>",
"%@tsgvvjfdt==;ffff4=@ss2=ykaa=;67,=ayl&&1sg*-2fggg5$$fatfccstt4;",
":@rhjvvvvssr=-:hf4-$ss2@yylayu-===laaaky-*hs$:,fd3=%ffffxcffff4>",
"-Othbvvvcfsph==<,&@ffx:$yllkklkayakklk00<@ssg$:27=$gfihccccchh6=",
";Ohhjggccgffjj==*$ffxl:$slyalllkk0aklkkl<$svgh%>>:gffcccccccch,-",
">Ojvfxcxxfjjbj3=&&hfcc;=llllzzkkkkkkkkks;;vvff>:>:xlcccccccchh,=",
":Odfsxcffjjjj3&&&==fvvv=asllzkkkkkkkkaa2=cvcf4*$:,>ficcbbcchhi>$",
";+dssffsjhhh4-+dd-=&vcv;$slllkllkkkkaaa=Ovxf4=$pf:,;ithbccccsr>$",
":+itfcfjjdh3;-iddt=&=vvc==ylkllkkkkaaa>$xft4;+iffc;:;hhxccbfpt:$",
":$tthjhhih4&=ihhhddOO=vjc=$slllkkkkka>&fft2++fdhxff;;=ixfgvfpd>$",
":+ethhhdd5&=hhhbbjhh@$&jvc=$ayklkzza-=ffs2;+pffjvcff;==ttffghh>$",
"-@thhddd7=+ffhbbvbvjf@@+hcc$=syalzs:&xgs,;+ihfjvhhcfu;++sffjft<$",
">@dhjhh1=$iifjbjvbvvfh$+=hhc++:aa=@@xgs,++ixjjvccchfxf++$hhvgs:$",
":=hdhh<$=itxvbhbvvvvcvh++=hhcc$$&Occxf,@Offgjvvvvvvffsi++$fffr:+",
":@dtt2@Ofiihhbbvfvvvvvvf+$=hfvvO.vvgf<@OfffcvvvvvvcvcfhfOO$att-+",
">+dt,@+dccvjvbvhgvccvvnccO$$hcvvvvjf<@OhffgvvvvvvvvcvvffsOO+sf;+",
"-+h,OOidhvbbhvcvcccvvvvnvv++$hvbvgf>OoggffvvcvvvvvvvvffftfX++v;O",
"-+$$OfidjjvghsfcvvhvvvbbvbhO++hhjf-O.pdsshffffjgvfffsffcffiXO==O",
"-+++diiidhhsitiihhvfhvhcjjhvOO+df;@otpppfittttfdffffffhffxfvOOOO",
"=+++$>->>-;%;;>;---:::-:;;;=$OO$;=oOO;=--:---;=;;===$;;;;,;;=XOX",
"++++++O.OO@o@OoOOOO@OOXOOXOXOO++O$OOOOOOX XOOOXOXoXXXXXXXX=OOOXO"
};
