/* XPM */
static char *_8943_9f1ab6944779785b7d811ede4d245d5426abbd6a6580016cc78308cf2a6b86f9[] = {
/* columns rows colors chars-per-pixel */
"64 64 53 1 ",
"  c #17150F",
". c #19160F",
"X c #171612",
"o c #1A1612",
"O c #1D1A14",
"+ c #1E1D19",
"@ c #221D16",
"# c #291F16",
"$ c #221E19",
"% c #291E19",
"& c #252017",
"* c #292017",
"= c #25211C",
"- c #2A241D",
"; c #262521",
": c #2A2621",
"> c #2C2923",
", c #2E2C28",
"< c #312C25",
"1 c #392F25",
"2 c #322E2A",
"3 c #343127",
"4 c #34312C",
"5 c #39332C",
"6 c #343330",
"7 c #3A3631",
"8 c #3D3932",
"9 c #3E3F3E",
"0 c #DC9F6B",
"q c #DA9F70",
"w c #DDA06E",
"e c #DEA474",
"r c #D5A57E",
"t c #DDA779",
"y c #DEA97D",
"u c #E1A675",
"i c #E2A877",
"p c #E0A779",
"a c #E2AA7C",
"s c #D6A780",
"d c #D6A984",
"f c #DBAC85",
"g c #D7AD8A",
"h c #DCAE89",
"j c #DEB18C",
"k c #DEB491",
"l c #E1AE83",
"z c #E0AF88",
"x c #E2B086",
"c c #E1B38C",
"v c #E2B692",
"b c #E4B995",
"n c #E4BB99",
/* pixels */
":>,>,,,:::;::;;;>-==->--:->->,::::----==-------->-<---5,<>>-<--&",
"-=$$O+O+o+@oOOooO@..O@OooOOOO&&O&O@@&O  O&&OOO.OOO@@O&&&$&@&&@&&",
"=@@@kkgkkzjkkkvvvvbcxxkvcjjj@&@#OO&&ckjkjfhhfffjjhhyyhjfrykk&@&&",
":@$++kgkgkkkcckccbcccckjjjj4&OcbjjOO&vccccjjjhkkkkjfjvcjhjk5&@&@",
":+kO+$kfzvzccbkcxcccvbcjkj4=@cbcccv&&=kjjjvccbbbnbccvvvhjx5-&x=&",
"=ogg+O+fvzzvbbvvxbbcncvvv4O=vvcbcccc&=-jjhcvcbcnnbccccyjj5-=ff-&",
"%Oggg+O$zzcbvvvccbbnbcbk3@Ovvbbbbcccc&&=fhfjxcbbnvcccxyh4-=ffj3$",
":Oggkk+O$jvvcccccbbnhvv2=Ovvvcvbbcbjjj==-jyxccnnbcccaaf3=@fshk<=",
";OgkkhkO@$cfzzcvvbvjcv4=@kcvccbvcbcxvcj*==hhkvnbccxzyr3#@ffjvb<=",
";Ohkbvkb$$;gjzcvcjhfk<=+kvvccbbcvvcvbjvj$==jkjvcvcxfr<-@fyxnnk4-",
";+hvvnbkj$;;kkcvchfj,@$jjj311cccbvc84,kyf=$=jjjcccff5-$rrfbnbj,:",
";Ogvvnbzdf$;:cvcxfj4=@kj>=$@@-cvbx<*==-afj&&-hhhcxf5==fyfvnnjj<=",
":$khnbvvffh%::kffj4=@kv,=teee$>25>-yye&-<kc&&&hhff1-*llzbnbbvv>$",
":$hvbvvzzkhg:>;fj2$Okb,=teeeqt====afewee-&cv==-jj5-@xxzcnccvbf<$",
",$kbnnbzzbzfg;:,2=$kkv:+eteepaaletyaeewe<&kjf=&>1&#fxccbvxvvzr1@",
">$kvnnzvcczffg,:-$hjvv:+ettyalluetaeeeee>&vhfj---=xjxxbcxbbfyf1$",
"2%hbbbczjjyddf6>;=gjkv;=tyllaluupauuiiey-=cxhf3--=cjzccccbcafh<@",
"2:hnnbvcjyrff5-->==jkbj=yaaiiiiiauwipet3=xchh5-==**jffzxbclzff<@",
"2=vnbvczyffr7-=hj==-kvv;$ftwuualiupaaya;Oxjj5*=rd@@-zfxcclzclf-#",
"<%nbcczfrhf5-&jkkj===jvv=$eeuiluuiayay-=jcv1--sfhy#-=rffzlccfa-@",
"1-ncvclfhy8--jjvvcj=-=kkc==yppiuaxipy>&ccv5-%ffcjfs&$-sfzvvcfh<@",
"4:xxcclxh83-hjcbxcck--:jjz&@lewpxpaa:&xcj5--rfhcxxjf-@#rfzzvzv:@",
"4-lxcfff8>-hhcvccbkvj;;>jhj==tyftty-=xcv5-#flzcccvcjf%--sfvzzk<@",
"5-xbczh8<-jfjcvcvbbnkj;;>jvcO@;te:@Oxvv5>&ffcbcbncbxyr##%fzzvz:#",
"5>xxxc83-jhjjcccbbbnnkh;;>jvcj+=+Oxcvk8>=zfxbcbbbcvxxhf*--jcvc>$",
"5>xcv8<-hhjcjccvbnbbbcxh---jvcxO.xcvj8<-hfxvccbbvbxxxcff##%kkc>=",
"5,vv8,>hfr33>cvvbbb44,xjh---vvvvxcvj8,:hjc4<<vbbvxl44,fxf%#-hh,=",
"5,v8>-jy,&&&=-xvbv<$==-xvv-=-cvcjkj94;rf>$$$==cvcz<@==-yck*--j,=",
"7<3>-cj,=teet=>44>;ttt@-<xh--<jjhh72,rf,$fpty=>45>;eww&-<jj=--<-",
"7<<>jv,=ttuiye==-=yapeee--ff-->555-:gj,$eeeptt=+==eewuey-&cj*-==",
"8>-jvc>$eyeuiyyyttiaiuet<@fjx>:;-*-hjx:$e0tpateeeeeuaaae<#jyf--;",
"5>kkvc-&eeeueaaattppippa>$cvc1:rs:=ghx:$qeipptiteeeiapiw:$hyj4->",
"8,kkcc;=euuuiiiiaaaiaxyt:=kjj4:rd2=fzl:$eylaaaliiiaiuu0i-=lxj4--",
"533xxjc=euupiiiaaaauayy3=vkfj4:,41-ffzc$yypaalaiiiiuwww3=axcj5>:",
"7,2,jjx;$queuiiaaxaaaay-Ovjg8---==-:fjx:$etpiliiiaiwwet-Ozcc51->",
"6>>,,jjx$$eiuaaiaaaayy-=vjj8,=jjkf-*:fhv==ytiiuilauwet-@fxj5-->>",
"4-j:::jjf$=taaapauaut-&cvj5;:cvvvfc%--jcz$$apiaaliwup:#zch7<-f<>",
"<-hh;;-fzz@@faiaiauu>&jvk5-=hcccvvvz--=cvc*$paaaiipa>$zhh5:=fy6:",
"<=hjf-=-fhx==teteti-&jkk4;=fccccbbvvb==:cvv$$alpiua%@zcj5-=fff5-",
",=xffh==:cjxO@:ew-@@jjj4=+fjccvbbvvbvv=*:xvc+$:pi:@@zcj5-=fffh5:",
">=ffhhz==;hccl$=OOfxhj1-&shjcvbbvbbbvvc=-:zvvz$$@Ozxjx5-%fhhjh4:",
">@fhvhdf=;=hxzfO.xjhf3=#fhjccvvvvcbcvvcj--:kkkco.xzzj5-=fffvjf1=",
">@hvccfsh===hzzxxjhf<@@yfc33<cccvvc522czc%-1chzzxxhh1:-jfhccff4:",
">$hhhczzhj===ffvjfh3$Off>&=+==cccx<#===zzc%-2hzkvjh5-=fffjvhfh6:",
"$@sfcjvvhhs==;hhhj4=$ff<=tyyy->34>=yty@*2fh%:2jkkj4-=fffhkxffd6:",
":@rhvbbvcffs=;>jh4==ff2@eeyaey==;=aptatt:%ff%:>jh4-@jfffccxhgf6:",
":Oskkbvcchffj=--2&@hhx:$eayieyaattipaiue>%ffh$:27-$hfjxccxxjjj2:",
":Ogkbvzcccfjkk$--@hhzz:$faiaayaitetipiua>$zvkh;>,:zhhjvcccckjj4=",
":Okkzzczzckkkk2;=&hhcc>$yyaxaxiiippiiaay:%vvjh>:>:kfzkzcvcczck2$",
":$khfzczhvkkn2$$===jbcc=yyaaxaiaaiiipye4$vvvh2=$;,>fgzvbvvcckd:$",
";$gdfhzfkkgk4=$hg=$=kvv-=yaaaiaaiiaaaee-@vhh6=@dg:,;sdkbxcccfs>$",
"=$dsfvzvkhk6;=gggg=&=cbk==ixaxaiiaaaee-=cfs6;$hggk::;kjzcvvzss:$",
":$ssgvkggk1-=ggkkggO+&kkk==yaaaiiaaat-&xff,$+hgjkhg:;$gzhzvffg>$",
":$sskkkgg4=$hjknbkkh+&&bvj&$yiiiaaaa:=xhf4++hhjkkczg;;$ddhkzhj>$",
":@dkkhgg6=+ghkbnbbbch+O+kjj=&yttalx-$xzf2$+hjhvbkccjf;$$fkjkkf2$",
":@gkkgg4;$fghkbkbbbvjh@@=jjc++>ty-@@cxf,+$ghkcvccckfzg+O$fzkks;$",
">$jggj<&$gfhkkbbbvbvcbj@+=hkjc+&&Occch3&Ohhjcvcccbczkdd$+$hhfs>$",
">=gdg,$Ohdfkkbbkcvvcvbvj+=&jjvvO cvch>OOchzvcvbvbbvvzfvkOO$dss;$",
">+gd<$Ogkhkkbbkvccjjccbvk@+&ckbcvvjj>@OjhhvcbbbvbcvvvvhhgoO+fh;O",
"-+j>OOdgjbnbkvkvcccvbbbbkkO@&kkbvvc-OOjchzvccvvvbvvvvzzdffO+$c;O",
"-O=+Xhdhkbnzhffvjvvbcvbbvkk@++kkjj-O.fgffchhhzkvckzkhhkkhzgXO$;O",
"=+++jdggggkggssgjjjjkvkkvvkjOXOhj;&.ydfrggdfdsgdffffjhhhhhfk+OOo",
"=+O+=,::::%::--:>--->>>=;;;&=OO+-=Oo$;;-%::::=%:;;;$;$;;:,>;+OOO",
"+++++OoooO@o@o@o.@.@@OO.O O.OOO++$OXOOOo..XoOOXXXOooXXXoXX+OoOXO"
};
