/* XPM */
static char *ec75ea6778a240deb4e539c6daf8beefLTKmiYpDnDORGtCb[] = {
/* columns rows colors chars-per-pixel */
"64 64 108 2 ",
"   c #17150F",
".  c #19160F",
"X  c #171612",
"o  c #1A1612",
"O  c #1D1A14",
"+  c #1E1D19",
"@  c #221D16",
"#  c #291F16",
"$  c #221E19",
"%  c #291E19",
"&  c #252017",
"*  c #292017",
"=  c #25211C",
"-  c #2A241D",
";  c #262521",
":  c #292620",
">  c #2A2621",
",  c #2D2720",
"<  c #292724",
"1  c #2A2821",
"2  c #2B2822",
"3  c #2B2922",
"4  c #2F2820",
"5  c #2E2921",
"6  c #2F2B23",
"7  c #2D2925",
"8  c #2C2926",
"9  c #2C2B26",
"0  c #2E2C28",
"q  c #2F2C28",
"w  c #302921",
"e  c #312C25",
"r  c #302D25",
"t  c #312C26",
"y  c #342E25",
"u  c #392F25",
"i  c #312D28",
"p  c #302E28",
"a  c #332E29",
"s  c #322E2A",
"d  c #343127",
"f  c #34302A",
"g  c #34312C",
"h  c #38322A",
"j  c #39332C",
"k  c #39332D",
"l  c #343330",
"z  c #3A3631",
"x  c #3D3932",
"c  c #3E3F3E",
"v  c #AF6C6C",
"b  c #B16E6E",
"n  c #AE7979",
"m  c #B47373",
"M  c #B87676",
"N  c #B27F7F",
"B  c #B47D7D",
"V  c #B57D7D",
"C  c #B57E7E",
"Z  c #B67E7E",
"A  c #B87B7B",
"S  c #B38080",
"D  c #B68080",
"F  c #B78080",
"G  c #B68181",
"H  c #B58383",
"J  c #B78282",
"K  c #B68484",
"L  c #B78585",
"P  c #B98080",
"I  c #B88181",
"U  c #B88282",
"Y  c #B98282",
"T  c #B88383",
"R  c #BA8282",
"E  c #BB8383",
"W  c #B98484",
"Q  c #B88585",
"!  c #B98585",
"~  c #B88686",
"^  c #B88787",
"/  c #BA8686",
"(  c #BB8686",
")  c #BA8787",
"_  c #BB8787",
"`  c #BC8585",
"'  c #BD8686",
"]  c #BC8787",
"[  c #BE8787",
"{  c #BA8888",
"}  c #BC8989",
"|  c #BE8989",
" . c #BD8A8A",
".. c #BF8A8A",
"X. c #BE8B8B",
"o. c #BF8B8B",
"O. c #BF8C8C",
"+. c #C08989",
"@. c #C08A8A",
"#. c #C08B8B",
"$. c #C18C8C",
"%. c #C08D8D",
"&. c #C28D8D",
"*. c #C18E8E",
"=. c #C28F8F",
"-. c #C39090",
";. c #C39191",
":. c #C39292",
/* pixels */
"2 8 0 8 0 0 8 8 < < < < < = ; ; , - - - - : - - - - 5 - , 8 8 : 5 - - - - - = = - - - - - - - - - - w - - - d d t 2 5 - w w - = ",
"- & = @ O + + O O O O o O O o o O O X o O + O o O O O O $ @ $ @ + + @ @ @ O . o o @ = o @ @ o o & o & * @ @ & & & & & @ @ @ & & ",
"- $ @ O { { Q Q Q Q '  .{ ' +.+. .*.o.[ ' I  . . .{ { Q $ $ @ @ O . @ @  . .Q { Q I Q I P I G Q { Z Q Z Z Q ' I S G Q  .& @ & # ",
": @ $ + $ Q L Q I  . .{ '  . .' [  . .' ' {  .' I  .Q f $ O '  .'  .O @ @  . . .+.Q +.I T Q  . .{  .Q T '  .{ T G Q  .d & @ @ & ",
"- + L o $ $ ' I Q { '  . .*.{  .[ [ [ +. .$. .Q  . .0 = & { +.$.| |  .@ * =  .Q  . .|  . . .;. .*.*.' +.+. .' ` ' | y - & T = @ ",
"- o N L + + + G ' ' ' +.*.*. .+.Q *.O.*.*. .$.o. .w @ & O.O.*.$.| | |  .& & - T | Q Q +.+.#. .&.:.#. .+.+.+.P ' Q h - - I I w @ ",
"$ o S L L + O $ I Q  .*.+.+.*.+.[ O.&.;.*.' *.o.a @ O +.O.*.$.*.+.+. .+. .& = = I Q I T  .E *.&.:. .+.' ' I Z T a - & I S { t = ",
"; O L Q Q ' + O $ '  . .'  .' +.*.*.&.&.Q +.{ a = @ +.*. .o. .*.*.+. . .I | = = = I I I +.#.*.;.*.| +.' I Z Z d $ & G Z ` { t # ",
"; o _ Q  .Q ' + $ $ Q I Q ' [ +.*.$. .Q +. .j $ $ { '  . .+.#.+.+.#.+.` +.| Q % & = Q Q  .*.&.*.'  .+.T Z Z f # $ Z I {  .O.t - ",
"; O L _ $.{  . .$ $ : Q ' Q [ o.[ { I I Q a $ $ +.|  .| +.*.+.|  .#.' #. .|  .' + = = {  . . .+.+.+.` I Z w - @ I Z G *.*. .f - ",
"; + L o.o.o.$. .Q + ; ; [ [ { *.[ I I Q a @ $ Q Q | d d w ' |  .#.| ` f a t  .I S = $ = { I +. .+.| T G a - = Z Z I *.:. .{ t : ",
"; + Q  .:.O. . .I I + ; < Q  .' Q Q _ g @ $  .Q 8 $ $ + $ - '  . .| t & $ = - Z P Q $ = = T Z Q ' I Z f - = Z Z G +.;.*. .{ < - ",
"; $ Q Q *.$. .[ I N Q $ < <  .I N Q a = $ {  .6 = m v v v - = g f < - m m b @ - t +.' @ & = I Q I T u - = I P Z #.;.*.#.+. .5 $ ",
"2 $ Q *.*.+.$.Q ' ' Q L < < ; Q ' g $ $  .o.0 & m b v b v m ; + = - m n b v b b - #  . .= $ = { T f * @ I I I +.*.#.+.#.*.I t = ",
"0 $ '  .$.*.$._ ' $.' P Q ; < < a $ @  . . .: + b v b m m m m M b v N m v m v v w @  .Q I = - 6 y * @ +.` ' +.*.+.+.*.*.I A t # ",
"8 $ Q O.*.-._ [ +.+.' Z S Q 8 < ; @ L [ *.{ 8 + b m m m m M M b b M m v b v v m 8 &  .' G I - - - @ Q +.Q | +.+.+.+.&.T Z I t @ ",
"a - Q  .*.$. . . .I Z Z Z Z j ; ; - L L Q #.; $ m b M A M M m b m M b b b m v M - = +. .G Z d - - &  .I Q [ [ ' +.*.' Z I I w $ ",
"a - K :.;.+. .' Q Z Z Z G j - ; ; ; - Q  . .' ; n m m m m m m m m b b m m m m 6 & I E T I h - @ - * * [ I I E  .*.' ' I I Z w # ",
"t -  .*.$. .' +.Z Z Z S j - = I L - $ -  . .Q ; = B m b b b M M b b m m m m B - $ I  .T j - = B N * * - I I I  . .E E ' E A w @ ",
"a % :.O. .' ' Z S G Z j - =  . . .Q - = - '  .*.= @ v b b m M m b M m m m m - & I  . .h * - Z I G Z # * - Z Z I I E +.+.E Z - @ ",
"y - *.[ +. .I Z I T x 5 - [  . . .' Q - = $ '  .' @ = m b m b b M M m m m 8 & ` +. .h - = I I | _ G N & & - Z Z [ [ '  .E Q w @ ",
"f - ' [ +.[ Z [ Q x w - _ I Q +. .|  .Q ; ; < '  .E @ @ M b b m M m m m 5 @ T +. .h * - Z Z I | E ' I Z - @ - m I Q ' { Q +.w @ ",
"h - Z [ $.I I I x 8 5 I I { +. .' *.*. . .= ; < Q ` Q @ & m m n m m m - @ I  .+.j - @ I Z Q  .|  . . . .Z @ - - Z N [ [ [ ' 4 @ ",
"k - ' +.+.' Q x 5 , I I Q  . .'  .+.+.*. .Q ; ; 2 Q  . .+ + < b v ; @ @  .+. .z w - Z I ' *.+.#.*.+.$.E Z Z # # % I Q '  .' 4 % ",
"k 5  . .|  .x t - { T { _ [ [  .*.*.&.;.*. .Q - ; < _  .' E $ = + o P  .|  .x - - I T '  .+.*.*.*.+.+.' I I G * - -  . .[  .t $ ",
"k 8 E ' #.x - w { T P | _ '  . .*.*.*.+.*.{ [ I - ; - [ [  .E O . T +.| { x d - I Z { | | ' #.*.+. .' Q +.| T Z # # % { { [ < $ ",
"k 9 +.[ x w 2 T Z N d y <  .o.O.&.*.*.l s a [ I I - - -  .+.{  . .+. .{ x 2 - G Q  .f 6 -  .*.+. .' I k t t P I Z % # - I Q 6 = ",
"z t O.x 8 - { Z < & & & $ - _ o.*.' t $ $ = - E  . .- - -  .+.[  .T T c f - B I < = & + = - |  .' I t $ $ - - B [ [ - # - Q t = ",
"k 6 d 6 -  .{ 0 & m b b m - ; g g 0 : m m m @ - w [ E - - w _ _ Q L z a 0 n S a = Z m m n = < g j 8 ; b v v # # w T T * - - t - ",
"z t w 2  .{ 0 & b m b m m b - + = = m m b b b v - % I Z - - 0 g k k - , ^ L 0 $ b v v m b b ; + = = b b b b b m - *  .Q - - = - ",
"x 9 - {  .+.- + m m b m m m b n m b m m m b b m w & I Q  .- 4 - - % # L Q Q ; & v v b m m m b b b b b m m M M b w =  .Z G - = 2 ",
"j 6  .{  .+.2 & m b v b m m m m b m m m b m m n 8 $  . .+.y - B Z - - G Q Q < $ v v m b m m m b b b b m M m b b 8 & T G G f - < ",
"k 6 [ _ [ ' < $ b b b m m m m m m M m m m B m M : - O.Q Q k 5 n Z a - N E E : $ v m m M m m m m m b m m b b b b - - I +.I a - - ",
"x f s [ [ Q [ $ m b b m m m b m m M m m m m m 8 $  .Q S Q f : t k i - Z Z Q [ $ Z m m M m Z M m m m m b v v b w $ Z ' ' ' k 5 2 ",
"z 0 a i Q Q [ : % b b b b m m M m A m M M m m - + ' L L z - - = $ - - - N [ ' : @ b m m m M m m b M m b v b m - O Z ' +.k y , , ",
"z 8 8 0 0 Q I ' $ @ b b m m M m m M m m m m , = +.Q { x 8 - [ Q ' N - - , P _ ' = $ m m m m b m M m b v b m w $ I +.' z 5 - 5 8 ",
"g - L 2 ; < L Q P $ $ m m M m m M m m b m 2 @ '  .Q l : : '  . . .[ _ % - - _ +.E $ $ m b m m M M m b b m w @ I  .Q l , % Z t < ",
"6 - L L ; - ; I Q Z @ @ M M m m m b b m 5 $ [  .$.k ; - Q ' '  .$.{ _ _ - - - [  .[ $ $ m m M M M b m M - # I  .I k , - Z Z g 5 ",
"y $ G Q P - - - I I ' $ $ m b m b b m - $ Q  .Q k ; = G  .' | O.*.O.o.o.o.= % - [ o. .$ $ m m b m b M % @ I +.I f - - G Z I h - ",
"a $ ' Q K _ $ - : +.E ' O $ : b b - @ @ Q ' Q g $ $ G Q '  .O.*.O.*.o.o.o._ - - - [  .[ $ $ < m m - # o I  .' k % - I Q I { h 5 ",
"t $ I G ' Q ' $ ; ; Q Q ' Z $ $ @ o I T T | u @ @ Z T | '  .+.*.$.$.$.$. . .' - ; , [  .+.I $ $ @ O E I [ { j - - G I { Q I j : ",
"8 $ Z { { ' P N $ - $ ' ' ' I O . I T T T u - @ Z I Q  . .+. .+. . .[  . . .[ _ ; % 5 '  .Q Q o o E E ' Q j - = I Z I  .Q G a - ",
", $ Q ' ' ' P N L $ - - I L Q ' ` | I T y % @ Z G Q f f w Q  . . .[ _ l s 0 [ I Q % % t Q ' ' _ ' E I Q h - - I G I  .Q I S j 2 ",
": $ Q I Q ' ' Q L Q = @ - G I ' I T T t $ @ Z Z 8 = = $ = - | I [ [ y $ $ - - I Q ' % , a G ' [  .' [ l % $ [ I G '  .' I Q a < ",
"% @ N G '  .{  .Q G N - - - G Q I _ g = $ Z Z a = b n m m = : a k < = m m m @ = t I Q % - a ' '  .Q j $ $ Q Z S _ _ [ K S Z l < ",
"; @ n Q [ $.*.$.Q G Z B = ; 2 L Q a ; $ S I a $ v m m b b b - $ = = m m m m m m - % ' S % : 8 Q P h - $ { I S I [ [ I I I Q a < ",
": O N Q *.O.+. .' Q G S L - - : a $ $ I Q ' : $ b M m m m m m m m m b m m m b b t $ E P Q $ : a z - $ | E G Q  .[ [ [ [ _ Q a ; ",
": o L  . .[ _ ' | ' Q  .{ Q - - % % I I ' Q : $ m m m m m n M m m b m m m b b M 8 $ E ' ' Q ; < 8 : Q I I [ [ [  .[ [  .I  .t : ",
", O '  .Q ' ' E ' ' { o.o.o.a - = & L G  .+.: + Z m m A M M m b m m m b m m m M < $ +.+.[ L a ; 8 < ' I Q [ [ +.+.[ [ ' E L 0 = ",
"8 O Q Q P ' Q ' Q '  . .o.0 = + = & = L *.+. .= m m A m A M b M m m m m b m m t $ ' *. .L a % $ < 8 8 I I Q  .*.$. . .L _ G < = ",
"< O Q Z P Q Q Q [ Q _ Q g = $ G H + & &  .Q  .- @ B m m M m M M m m M m m b m - $ [ Q Q a - $ S I 8 8 : S N Q *.' [ +._ Z N : % ",
"; O N N I _ ' Q _ L _ l ; - N K T S ; & = [ *.+.$ @ m m m M m m m m m m m b - = ' G N l $ + S Q K Q < < ; L [ Q [  .*.E B Z : $ ",
": $ N n Q [ _ ^ G _ f = & L L L Q I L + + =  . .Q = = m m m m m m m M m m - $ I G Z 0 $ $ L L Q ' Q I < ; $ K E Q ' [ Q S N 8 $ ",
"; $ n Z _ _ ^ S K f = = L L { o.*. . .G @ & =  . .' @ @ Z m m m M M M m 5 $ I Q P l + + S L L Q  .' Q E < = $ G Z Q [ Q E Q 8 $ ",
"w @ N Q [ Q K L g - + I G { O.O. .=.+.Q I + @ & '  .' $ $ m m m m M M - @ Q L P a $ + E _ L o.o. .+.' Q G $ + $ S ' Q  .Q Z 0 $ ",
", $ N Q Q _ L a = = N K Q O.O.O.#.*.*. . .G O @ $ [ _ Q O $ 5 b m - @ @ Q [ E 8 + + G L ' Q o.[ { ' _ Q K E + + $ L [ +.Q Z 8 $ ",
"2 + L G L ^ 6 $ + G N Q Q #.O.O.*. .+.| +. .Q O & = Q { ' Q + & @ O I ' { I t @ O Q Q [ _ $.$. .o.+.{ [ Q S G + + $ Q E G B : O ",
"2 & S N S 6 & O L G G  . .#.*. .{ | +.| *.*. .Q $ & & T ' O.{ X . +. .| I w @ + Q ' Q [ $.$.$. .*.$.*.+.[ I Q _ o O + G N Z ; + ",
"9 + G S 9 + O G L Q  .*. .*.O. .' |  .' +.+.*. .^ + $ $ {  .-.O. . . .' w @ + Q L I [ $.{ *.$.$.$. .o. .$.[ E Q Q O O + P S ; O ",
"= & T 5 + + S T Q *.*. .#. .{  .| |  . .*.*.*.*.{ { = o @  .{ O.+. .' - o . | { ' Q o.[ +. . .$.$.+.+. .o.[ K L Z G X + $ ' < @ ",
"- & + + + G S G  . .*.' { N I ' {  . .=. .O.O.O.O.O. .O + + { ^ { ^ -   . Z T Z I Q ' Q Q E +.'  ._ E _ E Q [ L I Q L X O $ = O ",
"= + + + G I N G Q Q Q I G N Z I Q { { Q { O. .{ {  . .{ + O O L { 2 & O P S S Z I G N N N Z P S K K I K Q E _ E Q Q I _ + O + o ",
"; + + + + 8 : : ; : : - - : : : - - - - - 2 2 2 2 = - = + O O + - + X O + - - - % - ; ; ; ; ; ; ; < $ = = = $ ; < 0 < ; = o O O ",
"+ O + + + O O o O O @ o @ o o o O O O & O + o o o o O X O O O & @ + O O X O O O . o o o O O o X X X X X X X X X X o + + O X X O "
};
